<svg width="86" height="89" viewBox="0 0 86 89" fill="none" xmlns="http://www.w3.org/2000/svg">
<circle cx="43" cy="46" r="42" stroke="#D3AB75" stroke-width="2"/>
<circle cx="43" cy="4" r="4" fill="#D3AB75"/>
<g clip-path="url(#clip0)">
<path d="M52.2015 36.1348H30.6825C29.7436 36.1348 29 36.9234 29 37.8548V51.0667C29 51.0742 29 51.0817 29 51.0892C29.0075 52.0055 29.7661 52.7416 30.6825 52.7341H31.5537V41.9408C31.5537 40.1757 32.9959 38.7636 34.7609 38.7636H53.8689V37.8548C53.8689 36.9234 53.1404 36.1348 52.2015 36.1348Z" fill="#174862"/>
<path d="M56.2875 40.2658H34.7685H34.7609C33.8221 40.2583 33.0635 41.0094 33.0559 41.9408V43.0449H57.9925H58V41.9408C58 41.0019 57.2264 40.2658 56.2875 40.2658Z" fill="#082534"/>
<path d="M57.9925 44.5471H33.0559V46.5H57.9925V44.5471Z" fill="#082534"/>
<path d="M33.0559 48.0022V55.1452C33.0559 56.0916 33.8146 56.8577 34.7609 56.8652H56.28C57.2264 56.8577 57.985 56.0916 57.9925 55.1452V48.0022H33.0559ZM56.0321 54.1162C55.1909 55.3555 53.5009 55.686 52.2616 54.8447C51.8109 55.1527 51.2852 55.3104 50.7444 55.3104C49.2422 55.3104 48.0329 54.0861 48.0329 52.5914C48.0329 51.0967 49.2422 49.8799 50.7444 49.8799C51.2852 49.8799 51.8109 50.0377 52.2616 50.3456C53.1854 49.7222 54.3872 49.7222 55.3036 50.3456C56.5429 51.1869 56.8733 52.8768 56.0321 54.1162Z" fill="#082534"/>
<path d="M56.0321 54.1162C55.1909 55.3555 53.5009 55.686 52.2616 54.8447C51.8109 55.1527 51.2852 55.3104 50.7444 55.3104C49.2422 55.3104 48.0329 54.0861 48.0329 52.5914C48.0329 51.0967 49.2422 49.8799 50.7444 49.8799C51.2852 49.8799 51.8109 50.0377 52.2616 50.3456C53.1854 49.7222 54.3872 49.7222 55.3036 50.3456C56.5429 51.1869 56.8733 52.8768 56.0321 54.1162Z" fill="#082534"/>
</g>
<defs>
<clipPath id="clip0">
<rect width="29" height="29" fill="white" transform="translate(29 32)"/>
</clipPath>
</defs>
</svg>
