<svg width="86" height="89" viewBox="0 0 86 89" fill="none" xmlns="http://www.w3.org/2000/svg">
<circle cx="43" cy="46" r="42" stroke="#D3AB75" stroke-width="2"/>
<circle cx="43" cy="4" r="4" fill="#D3AB75"/>
<g clip-path="url(#clip0)">
<path d="M43.5 41.1892C40.5699 41.1892 38.1892 43.5699 38.1892 46.5C38.1892 49.4301 40.5699 51.8108 43.5 51.8108C46.4301 51.8108 48.8108 49.4301 48.8108 46.5C48.8108 43.5699 46.4301 41.1892 43.5 41.1892ZM43.0971 44.9251C42.4378 44.9251 41.8885 45.4745 41.8885 46.1337H40.1304C40.167 44.4856 41.4856 43.167 43.0971 43.167V44.9251Z" fill="#174862"/>
<path d="M59.6154 45.4012C57.8208 43.167 51.4112 35.8784 43.5 35.8784C35.5888 35.8784 29.1792 43.167 27.3846 45.4012C26.8718 46.0238 26.8718 46.9395 27.3846 47.5987C29.1792 49.8329 35.5888 57.1215 43.5 57.1215C51.4112 57.1215 57.8208 49.8329 59.6154 47.5987C60.1282 46.9761 60.1282 46.0604 59.6154 45.4012ZM43.5 54.1914C39.2514 54.1914 35.8085 50.7486 35.8085 46.5C35.8085 42.2513 39.2514 38.8085 43.5 38.8085C47.7486 38.8085 51.1915 42.2513 51.1915 46.5C51.1915 50.7486 47.7486 54.1914 43.5 54.1914Z" fill="#082534"/>
</g>
<defs>
<clipPath id="clip0">
<rect width="33" height="33" fill="white" transform="translate(27 30)"/>
</clipPath>
</defs>
</svg>
