<svg width="96" height="68" viewBox="0 0 96 68" fill="none" xmlns="http://www.w3.org/2000/svg">
<g filter="url(#filter0_i)">
<path d="M69.5399 7.402H72.7136V7.84965H71.3831V11.5427H70.8704V7.84965H69.5399V7.402ZM76.7702 8.58694C76.7702 8.92925 76.6793 9.20574 76.4975 9.41639C76.32 9.62705 76.056 9.76312 75.7055 9.82454L76.8735 11.5427H76.2117L75.1535 9.85087H74.44V11.5427H73.9273V7.402H75.3484C75.8073 7.402 76.1579 7.51391 76.4 7.73773C76.6466 7.96156 76.7702 8.24462 76.7702 8.58694ZM75.3099 9.48881C75.6168 9.48881 75.848 9.41422 76.0044 9.26499C76.1644 9.11141 76.2444 8.91168 76.2444 8.66593C76.2444 8.41578 76.1666 8.21829 76.0102 8.07347C75.8589 7.9243 75.6386 7.84965 75.3484 7.84965H74.44V9.48881H75.3099ZM79.3411 7.402H79.9644L81.3339 11.5427H80.8015L80.4509 10.4894H78.8284L78.4778 11.5427H77.9397L79.3411 7.402ZM78.9651 10.0813H80.3215L79.6466 8.04055L78.9651 10.0813ZM83.2757 7.402L85.3004 10.7264V7.402H85.8131V11.5427H85.2422L83.1848 8.17221V11.5427H82.6655V7.402H83.2757ZM89.8153 8.4092C89.7411 8.00547 89.4495 7.80356 88.9389 7.80356C88.6662 7.80356 88.456 7.86505 88.3091 7.98789C88.1622 8.10638 88.0888 8.25121 88.0888 8.42236C88.0888 8.58911 88.1339 8.71643 88.2248 8.80418C88.3157 8.89193 88.4626 8.96875 88.6662 9.03458L89.5164 9.33082C89.8066 9.43173 90.0357 9.56997 90.2044 9.74554C90.3775 9.92111 90.464 10.169 90.464 10.4894C90.464 10.8054 90.3295 11.0731 90.0619 11.2925C89.7935 11.5075 89.4342 11.6151 88.984 11.6151C88.5346 11.6151 88.1644 11.501 87.8742 11.2728C87.5891 11.0401 87.4415 10.7154 87.4328 10.2985H87.9331C87.9331 10.5706 88.0262 10.7791 88.2117 10.9239C88.4022 11.0687 88.6444 11.1411 88.9389 11.1411C89.2371 11.1411 89.4735 11.0753 89.6466 10.9436C89.8189 10.8076 89.9055 10.6496 89.9055 10.4697C89.9055 10.2853 89.8517 10.1405 89.7433 10.0352C89.64 9.92987 89.4837 9.84212 89.2764 9.77188L88.5557 9.50197C88.2182 9.38789 87.9629 9.25182 87.7899 9.09383C87.6168 8.93584 87.5302 8.70543 87.5302 8.40262C87.5302 8.09546 87.6517 7.84089 87.8939 7.63899C88.136 7.43275 88.4757 7.32959 88.9128 7.32959C89.3499 7.32959 89.6829 7.42833 89.912 7.62582C90.1462 7.81897 90.28 8.08005 90.3149 8.4092H89.8153ZM72.6811 18.8441C72.4994 19.3664 72.1467 19.6275 71.6232 19.6275C71.0997 19.6275 70.6692 19.4344 70.3317 19.0482C69.9985 18.662 69.832 18.142 69.832 17.4881C69.832 16.8341 70.0136 16.3141 70.3771 15.9279C70.7449 15.5417 71.2013 15.3486 71.7465 15.3486C72.0667 15.3486 72.3458 15.4144 72.5837 15.5461C72.8262 15.6777 73.0335 15.8884 73.2066 16.1781L72.7136 16.3492C72.4323 15.9937 72.1035 15.816 71.7271 15.816C71.3507 15.816 71.0304 15.9718 70.7665 16.2834C70.5069 16.595 70.3771 17.0009 70.3771 17.5012C70.3771 17.9971 70.4896 18.3965 70.7146 18.6993C70.9396 19.0021 71.2424 19.1535 71.6232 19.1535C71.9347 19.1535 72.1857 19.0482 72.376 18.8376C72.5664 18.6269 72.6616 18.3153 72.6616 17.9028V17.8896L71.6362 17.8501V17.5078H73.1615V19.555H72.7462L72.6811 18.8441ZM75.3717 19.1008H77.1891V19.555H74.8589V15.4144H75.3717V19.1008ZM79.8546 15.342C80.3826 15.342 80.8088 15.5263 81.1331 15.895C81.4619 16.2592 81.6269 16.7924 81.6269 17.4946C81.6269 18.1924 81.464 18.7234 81.1397 19.0877C80.8153 19.4476 80.3869 19.6275 79.8546 19.6275C79.3229 19.6275 78.8946 19.4454 78.5695 19.0811C78.2495 18.7125 78.0895 18.1815 78.0895 17.4881C78.0895 16.7903 78.2495 16.2592 78.5695 15.895C78.8946 15.5263 79.3229 15.342 79.8546 15.342ZM79.8546 15.8094C79.4742 15.8094 79.1731 15.9542 78.9528 16.2439C78.7324 16.5335 78.6219 16.9504 78.6219 17.4946C78.6219 18.0388 78.7324 18.4514 78.9528 18.7323C79.1731 19.0131 79.4742 19.1535 79.8546 19.1535C80.2357 19.1535 80.536 19.0131 80.7571 18.7323C80.9819 18.4514 81.0946 18.0388 81.0946 17.4946C81.0946 16.9504 80.9819 16.5335 80.7571 16.2439C80.536 15.9542 80.2357 15.8094 79.8546 15.8094ZM83.1288 15.4144H84.6539C85.0822 15.4144 85.4109 15.5176 85.64 15.7238C85.8742 15.9301 85.9906 16.1891 85.9906 16.5006C85.9906 16.7376 85.9259 16.9439 85.7964 17.1194C85.6706 17.2949 85.4779 17.4134 85.2182 17.4749C85.4735 17.5187 85.6771 17.6307 85.8284 17.8106C85.984 17.9905 86.0626 18.1946 86.0626 18.4229C86.0626 18.9319 85.8175 19.2764 85.3288 19.4563C85.1469 19.5221 84.9244 19.555 84.6604 19.555H83.1288V15.4144ZM84.6473 19.1008C84.9586 19.1008 85.1819 19.0372 85.3157 18.9099C85.4502 18.7827 85.5171 18.6138 85.5171 18.4031C85.5171 18.1924 85.4437 18.0256 85.2968 17.9028C85.1491 17.7755 84.9331 17.7119 84.6473 17.7119H83.6415V19.1008H84.6473ZM83.6415 17.2642H84.6408C84.8917 17.2642 85.0909 17.2028 85.2379 17.0799C85.3891 16.9526 85.4655 16.7793 85.4655 16.5599C85.4655 16.3405 85.3913 16.1693 85.2444 16.0464C85.1019 15.9235 84.9004 15.8621 84.6408 15.8621H83.6415V17.2642ZM88.6008 15.4144H89.2233L90.5928 19.555H90.0611L89.7106 18.5018H88.088L87.7375 19.555H87.1986L88.6008 15.4144ZM88.224 18.0937H89.5804L88.9055 16.053L88.224 18.0937ZM92.4502 19.1008H94.267V19.555H91.9375V15.4144H92.4502V19.1008Z" fill="#C9AF6E"/>
</g>
<path d="M69.5399 7.402H72.7136V7.84965H71.3831V11.5427H70.8704V7.84965H69.5399V7.402ZM76.7702 8.58694C76.7702 8.92925 76.6793 9.20574 76.4975 9.41639C76.32 9.62705 76.056 9.76312 75.7055 9.82454L76.8735 11.5427H76.2117L75.1535 9.85087H74.44V11.5427H73.9273V7.402H75.3484C75.8073 7.402 76.1579 7.51391 76.4 7.73773C76.6466 7.96156 76.7702 8.24462 76.7702 8.58694ZM75.3099 9.48881C75.6168 9.48881 75.848 9.41422 76.0044 9.26499C76.1644 9.11141 76.2444 8.91168 76.2444 8.66593C76.2444 8.41578 76.1666 8.21829 76.0102 8.07347C75.8589 7.9243 75.6386 7.84965 75.3484 7.84965H74.44V9.48881H75.3099ZM79.3411 7.402H79.9644L81.3339 11.5427H80.8015L80.4509 10.4894H78.8284L78.4778 11.5427H77.9397L79.3411 7.402ZM78.9651 10.0813H80.3215L79.6466 8.04055L78.9651 10.0813ZM83.2757 7.402L85.3004 10.7264V7.402H85.8131V11.5427H85.2422L83.1848 8.17221V11.5427H82.6655V7.402H83.2757ZM89.8153 8.4092C89.7411 8.00547 89.4495 7.80356 88.9389 7.80356C88.6662 7.80356 88.456 7.86505 88.3091 7.98789C88.1622 8.10638 88.0888 8.25121 88.0888 8.42236C88.0888 8.58911 88.1339 8.71643 88.2248 8.80418C88.3157 8.89193 88.4626 8.96875 88.6662 9.03458L89.5164 9.33082C89.8066 9.43173 90.0357 9.56997 90.2044 9.74554C90.3775 9.92111 90.464 10.169 90.464 10.4894C90.464 10.8054 90.3295 11.0731 90.0619 11.2925C89.7935 11.5075 89.4342 11.6151 88.984 11.6151C88.5346 11.6151 88.1644 11.501 87.8742 11.2728C87.5891 11.0401 87.4415 10.7154 87.4328 10.2985H87.9331C87.9331 10.5706 88.0262 10.7791 88.2117 10.9239C88.4022 11.0687 88.6444 11.1411 88.9389 11.1411C89.2371 11.1411 89.4735 11.0753 89.6466 10.9436C89.8189 10.8076 89.9055 10.6496 89.9055 10.4697C89.9055 10.2853 89.8517 10.1405 89.7433 10.0352C89.64 9.92987 89.4837 9.84212 89.2764 9.77188L88.5557 9.50197C88.2182 9.38789 87.9629 9.25182 87.7899 9.09383C87.6168 8.93584 87.5302 8.70543 87.5302 8.40262C87.5302 8.09546 87.6517 7.84089 87.8939 7.63899C88.136 7.43275 88.4757 7.32959 88.9128 7.32959C89.3499 7.32959 89.6829 7.42833 89.912 7.62582C90.1462 7.81897 90.28 8.08005 90.3149 8.4092H89.8153ZM72.6811 18.8441C72.4994 19.3664 72.1467 19.6275 71.6232 19.6275C71.0997 19.6275 70.6692 19.4344 70.3317 19.0482C69.9985 18.662 69.832 18.142 69.832 17.4881C69.832 16.8341 70.0136 16.3141 70.3771 15.9279C70.7449 15.5417 71.2013 15.3486 71.7465 15.3486C72.0667 15.3486 72.3458 15.4144 72.5837 15.5461C72.8262 15.6777 73.0335 15.8884 73.2066 16.1781L72.7136 16.3492C72.4323 15.9937 72.1035 15.816 71.7271 15.816C71.3507 15.816 71.0304 15.9718 70.7665 16.2834C70.5069 16.595 70.3771 17.0009 70.3771 17.5012C70.3771 17.9971 70.4896 18.3965 70.7146 18.6993C70.9396 19.0021 71.2424 19.1535 71.6232 19.1535C71.9347 19.1535 72.1857 19.0482 72.376 18.8376C72.5664 18.6269 72.6616 18.3153 72.6616 17.9028V17.8896L71.6362 17.8501V17.5078H73.1615V19.555H72.7462L72.6811 18.8441ZM75.3717 19.1008H77.1891V19.555H74.8589V15.4144H75.3717V19.1008ZM79.8546 15.342C80.3826 15.342 80.8088 15.5263 81.1331 15.895C81.4619 16.2592 81.6269 16.7924 81.6269 17.4946C81.6269 18.1924 81.464 18.7234 81.1397 19.0877C80.8153 19.4476 80.3869 19.6275 79.8546 19.6275C79.3229 19.6275 78.8946 19.4454 78.5695 19.0811C78.2495 18.7125 78.0895 18.1815 78.0895 17.4881C78.0895 16.7903 78.2495 16.2592 78.5695 15.895C78.8946 15.5263 79.3229 15.342 79.8546 15.342ZM79.8546 15.8094C79.4742 15.8094 79.1731 15.9542 78.9528 16.2439C78.7324 16.5335 78.6219 16.9504 78.6219 17.4946C78.6219 18.0388 78.7324 18.4514 78.9528 18.7323C79.1731 19.0131 79.4742 19.1535 79.8546 19.1535C80.2357 19.1535 80.536 19.0131 80.7571 18.7323C80.9819 18.4514 81.0946 18.0388 81.0946 17.4946C81.0946 16.9504 80.9819 16.5335 80.7571 16.2439C80.536 15.9542 80.2357 15.8094 79.8546 15.8094ZM83.1288 15.4144H84.6539C85.0822 15.4144 85.4109 15.5176 85.64 15.7238C85.8742 15.9301 85.9906 16.1891 85.9906 16.5006C85.9906 16.7376 85.9259 16.9439 85.7964 17.1194C85.6706 17.2949 85.4779 17.4134 85.2182 17.4749C85.4735 17.5187 85.6771 17.6307 85.8284 17.8106C85.984 17.9905 86.0626 18.1946 86.0626 18.4229C86.0626 18.9319 85.8175 19.2764 85.3288 19.4563C85.1469 19.5221 84.9244 19.555 84.6604 19.555H83.1288V15.4144ZM84.6473 19.1008C84.9586 19.1008 85.1819 19.0372 85.3157 18.9099C85.4502 18.7827 85.5171 18.6138 85.5171 18.4031C85.5171 18.1924 85.4437 18.0256 85.2968 17.9028C85.1491 17.7755 84.9331 17.7119 84.6473 17.7119H83.6415V19.1008H84.6473ZM83.6415 17.2642H84.6408C84.8917 17.2642 85.0909 17.2028 85.2379 17.0799C85.3891 16.9526 85.4655 16.7793 85.4655 16.5599C85.4655 16.3405 85.3913 16.1693 85.2444 16.0464C85.1019 15.9235 84.9004 15.8621 84.6408 15.8621H83.6415V17.2642ZM88.6008 15.4144H89.2233L90.5928 19.555H90.0611L89.7106 18.5018H88.088L87.7375 19.555H87.1986L88.6008 15.4144ZM88.224 18.0937H89.5804L88.9055 16.053L88.224 18.0937ZM92.4502 19.1008H94.267V19.555H91.9375V15.4144H92.4502V19.1008Z" stroke="#C9AF6E" stroke-width="0.5"/>
<g filter="url(#filter1_i)">
<path d="M70.7808 27.1085H72.601V27.5846H70.2672V23.2441H70.7808V27.1085ZM73.8284 23.2441H74.3418V27.5846H73.8284V23.2441ZM76.9048 23.2441L78.2829 26.1838L79.648 23.2441H80.3695V27.5846H79.856V24.017L78.4517 27.0395H78.1077L76.6837 23.9687V27.5846H76.1702V23.2441H76.9048ZM82.2008 23.2441H82.7142V27.5846H82.2008V23.2441ZM83.9258 23.2441H87.1048V23.7134H85.7724V27.5846H85.2589V23.7134H83.9258V23.2441ZM88.3142 23.2441H90.8298V23.7134H88.8277V25.1694H90.7128V25.6317H88.8277V27.1085H90.8298V27.5846H88.3142V23.2441ZM93.6866 23.2441C94.3026 23.2441 94.7942 23.442 95.1629 23.8376C95.5353 24.2286 95.7215 24.7554 95.7215 25.4178C95.7215 26.0757 95.5353 26.6024 95.1629 26.998C94.7942 27.3891 94.3026 27.5846 93.6866 27.5846H92.4844V23.2441H93.6866ZM92.9978 27.1085H93.6866C94.1418 27.1085 94.504 26.9498 94.7724 26.6323C95.0415 26.3103 95.1753 25.9032 95.1753 25.411C95.1753 24.9187 95.0393 24.5162 94.7658 24.2033C94.4975 23.8859 94.1375 23.7272 93.6866 23.7272H92.9978V27.1085Z" fill="#C9AF6E"/>
</g>
<path d="M70.7808 27.1085H72.601V27.5846H70.2672V23.2441H70.7808V27.1085ZM73.8284 23.2441H74.3418V27.5846H73.8284V23.2441ZM76.9048 23.2441L78.2829 26.1838L79.648 23.2441H80.3695V27.5846H79.856V24.017L78.4517 27.0395H78.1077L76.6837 23.9687V27.5846H76.1702V23.2441H76.9048ZM82.2008 23.2441H82.7142V27.5846H82.2008V23.2441ZM83.9258 23.2441H87.1048V23.7134H85.7724V27.5846H85.2589V23.7134H83.9258V23.2441ZM88.3142 23.2441H90.8298V23.7134H88.8277V25.1694H90.7128V25.6317H88.8277V27.1085H90.8298V27.5846H88.3142V23.2441ZM93.6866 23.2441C94.3026 23.2441 94.7942 23.442 95.1629 23.8376C95.5353 24.2286 95.7215 24.7554 95.7215 25.4178C95.7215 26.0757 95.5353 26.6024 95.1629 26.998C94.7942 27.3891 94.3026 27.5846 93.6866 27.5846H92.4844V23.2441H93.6866ZM92.9978 27.1085H93.6866C94.1418 27.1085 94.504 26.9498 94.7724 26.6323C95.0415 26.3103 95.1753 25.9032 95.1753 25.411C95.1753 24.9187 95.0393 24.5162 94.7658 24.2033C94.4975 23.8859 94.1375 23.7272 93.6866 23.7272H92.9978V27.1085Z" stroke="#C9AF6E" stroke-width="0.5"/>
<g filter="url(#filter2_i)">
<path d="M0 2.80241H3.88148L6.63513 22.6542H6.79628L9.56458 2.80241H13.4314L8.87615 27.8629H4.5406L0 2.80241ZM20.6055 4.76851C19.922 4.76851 19.3801 4.56312 18.9797 4.15228C18.5892 3.74144 18.3938 3.1399 18.3938 2.34761C18.3938 1.90739 18.4427 1.54062 18.5403 1.24714C18.6477 0.943927 18.7942 0.704256 18.9797 0.528207C19.175 0.342359 19.4094 0.210305 19.6828 0.132055C19.9562 0.0440166 20.2687 0 20.6202 0C21.3526 0 21.9091 0.185854 22.29 0.55755C22.6708 0.929234 22.8612 1.52593 22.8612 2.34761C22.8612 3.11058 22.6659 3.70722 22.2753 4.13764C21.8945 4.55822 21.3379 4.76851 20.6055 4.76851ZM18.6868 7.65904H22.3924V27.8629H18.6868V7.65904ZM33.9754 28.083C32.2764 28.083 30.9776 27.3836 30.0793 25.9848C29.1907 24.5861 28.7464 22.4537 28.7464 19.5877V15.7728C28.7464 14.4915 28.8391 13.3959 29.0247 12.4862C29.2103 11.5667 29.4543 10.7989 29.7571 10.1826C30.0695 9.5566 30.4211 9.06266 30.8116 8.70074C31.212 8.33883 31.6221 8.06494 32.042 7.8791C32.4619 7.68342 32.8769 7.56117 33.287 7.51226C33.6971 7.4536 34.0731 7.42423 34.4148 7.42423C35.0984 7.42423 35.7233 7.51718 36.2897 7.70303C36.8561 7.8791 37.3443 8.15298 37.7543 8.52467C38.1644 8.88659 38.4818 9.34631 38.7064 9.90391C38.931 10.4614 39.0433 11.1168 39.0433 11.87C39.0433 12.3395 39.0189 12.7454 38.97 13.0878C38.931 13.4204 38.8724 13.7432 38.7943 14.0562H35.8356V13.3812C35.8356 12.364 35.7135 11.5716 35.4695 11.0043C35.2351 10.4272 34.8445 10.1386 34.2977 10.1386C33.995 10.1386 33.7313 10.212 33.5068 10.3587C33.2821 10.4957 33.0917 10.7353 32.9354 11.0776C32.789 11.42 32.6767 11.8797 32.5986 12.4569C32.5302 13.034 32.4961 13.7578 32.4961 14.6284V20.3653C32.4961 21.2457 32.5254 21.9939 32.5839 22.6101C32.6425 23.2264 32.7451 23.7302 32.8915 24.1215C33.038 24.5029 33.2333 24.7817 33.4774 24.9578C33.7215 25.1338 34.0242 25.2219 34.3855 25.2219C34.5711 25.2219 34.7517 25.1779 34.9275 25.0898C35.1033 24.992 35.2545 24.8356 35.3815 24.6203C35.5182 24.4051 35.6257 24.1215 35.7038 23.7693C35.7916 23.4074 35.8356 22.9624 35.8356 22.4341V21.8033H39.0287V22.5808C39.0287 24.498 38.6039 25.8968 37.7543 26.7772C36.9146 27.6477 35.6549 28.083 33.9754 28.083ZM45.1043 1.1738H48.81V16.5358H48.9271L52.9698 7.65904H56.5287L52.047 16.9026L56.9537 27.8629H53.1748L48.9271 17.8417H48.81V27.8629H45.1043V1.1738Z" fill="#D3AB75"/>
</g>
<g filter="url(#filter3_i)">
<path d="M0.832741 34.4692H13.2027V38.4285H5.73901V48.346H11.5925V52.3053H5.73901V67.6182H0.832741V34.4692ZM26.6297 67.9095C26.074 67.9095 25.5057 67.8641 24.9248 67.7734C24.3565 67.6828 23.8008 67.4952 23.2577 67.2107C22.7273 66.9257 22.2222 66.5183 21.7423 65.9879C21.275 65.4575 20.8646 64.7588 20.511 63.8918C20.1574 63.0248 19.8795 61.9572 19.6775 60.6897C19.4754 59.4215 19.3744 57.908 19.3744 56.1479V51.9559C19.3744 50.2221 19.4754 48.7406 19.6775 47.5115C19.8922 46.2693 20.1763 45.2278 20.53 44.3868C20.8961 43.5458 21.3192 42.8795 21.7991 42.3878C22.2791 41.8831 22.7841 41.5015 23.3145 41.2426C23.8576 40.971 24.4133 40.7963 24.9816 40.7187C25.5499 40.6281 26.1056 40.5828 26.6486 40.5828C27.1664 40.5828 27.7031 40.6216 28.2588 40.6992C28.8144 40.7768 29.3575 40.9451 29.8879 41.2039C30.4183 41.4497 30.9172 41.825 31.3844 42.3295C31.8643 42.8212 32.2811 43.4875 32.6346 44.3285C33.0009 45.1695 33.285 46.2176 33.4871 47.4726C33.7017 48.7147 33.8092 50.2092 33.8092 51.9559V56.1479C33.8092 57.8819 33.7017 59.3761 33.4871 60.6313C33.2724 61.8864 32.982 62.9472 32.6157 63.8142C32.2495 64.6812 31.8264 65.3861 31.3465 65.9295C30.8666 66.4599 30.3615 66.8741 29.8311 67.1716C29.3007 67.4691 28.7576 67.6635 28.202 67.7542C27.6589 67.8572 27.1348 67.9095 26.6297 67.9095ZM26.6676 64.1247C27.0969 64.1247 27.4568 64.0148 27.7473 63.795C28.0504 63.562 28.2903 63.1869 28.4671 62.669C28.6566 62.1516 28.7892 61.4722 28.8649 60.6313C28.9534 59.7773 28.9975 58.7227 28.9975 57.4676V50.8885C28.9975 49.6335 28.9534 48.579 28.8649 47.725C28.7892 46.871 28.6566 46.1853 28.4671 45.6677C28.2903 45.1372 28.0504 44.7555 27.7473 44.5226C27.4568 44.2897 27.0969 44.1733 26.6676 44.1733C26.2129 44.1733 25.8277 44.2897 25.512 44.5226C25.2089 44.7555 24.9563 45.1372 24.7543 45.6677C24.5522 46.1853 24.407 46.871 24.3186 47.725C24.2302 48.579 24.186 49.6335 24.186 50.8885V57.4676C24.186 58.7227 24.2302 59.7773 24.3186 60.6313C24.407 61.4722 24.5522 62.1516 24.7543 62.669C24.9563 63.1869 25.2089 63.562 25.512 63.795C25.8277 64.0148 26.2129 64.1247 26.6676 64.1247ZM41.932 40.8934H45.4365L45.8532 43.6105C46.3837 42.6012 46.9899 41.8443 47.6718 41.3397C48.3664 40.8351 49.0736 40.5828 49.7935 40.5828C51.17 40.5828 52.1866 41.0163 52.8433 41.8831C53.5 42.75 53.8284 44.0504 53.8284 45.7841C53.8284 46.0041 53.8095 46.2693 53.7716 46.5799C53.7463 46.8775 53.7021 47.1945 53.6389 47.5308C53.5884 47.8543 53.5189 48.1843 53.4305 48.5206C53.3548 48.8442 53.2727 49.1418 53.1843 49.4135H49.8503V46.9292C49.8503 46.3858 49.8124 45.9395 49.7366 45.5901C49.6735 45.2407 49.5851 44.9625 49.4714 44.7555C49.3577 44.5356 49.2252 44.3868 49.0736 44.3092C48.922 44.2186 48.7579 44.1733 48.5811 44.1733C48.2023 44.1733 47.8486 44.3026 47.5203 44.5615C47.2045 44.8073 46.9393 45.1566 46.7247 45.6094V67.6182H41.932V40.8934ZM65.7396 67.9287C65.4492 67.9287 65.1085 67.8964 64.7169 67.8318C64.3253 67.7796 63.921 67.6505 63.5045 67.4437C63.0875 67.2362 62.6771 66.9257 62.2734 66.5121C61.8691 66.0978 61.509 65.5351 61.1932 64.8234C60.878 64.0986 60.6191 63.2062 60.4167 62.1454C60.2275 61.084 60.1324 59.7966 60.1324 58.2831V49.8016C60.1324 48.3007 60.2336 47.0327 60.4354 45.9976C60.6506 44.9625 60.9283 44.1086 61.2689 43.4358C61.6103 42.75 61.9891 42.2196 62.4055 41.8443C62.8353 41.4562 63.2585 41.1715 63.6749 40.9904C64.1047 40.8092 64.5084 40.6992 64.8873 40.6605C65.2788 40.6216 65.6007 40.6022 65.8535 40.6022C66.3209 40.6022 66.7628 40.6669 67.1792 40.7963C67.5963 40.9256 67.9751 41.1003 68.3159 41.3202C68.6571 41.5274 68.9602 41.7667 69.2251 42.0384C69.4906 42.2972 69.7119 42.5624 69.8883 42.8342L69.9071 42.8147L69.7555 39.4377V32.3149H74.5295V67.6182H70.7975L70.3811 65.1339C70.1665 65.483 69.9198 65.8264 69.6422 66.1624C69.3645 66.499 69.036 66.8033 68.6571 67.0747C68.2783 67.3337 67.8491 67.5405 67.3689 67.6958C66.8889 67.8511 66.3457 67.9287 65.7396 67.9287ZM67.3689 64.1247C67.6848 64.1247 67.9624 64.0732 68.2025 63.9694C68.4553 63.8533 68.6759 63.7105 68.8656 63.5428C69.0675 63.3614 69.2378 63.154 69.3767 62.9217C69.5282 62.6882 69.6549 62.4491 69.7555 62.2032V46.1335C69.5161 45.5901 69.1936 45.1308 68.7899 44.7555C68.3983 44.3674 67.9182 44.1733 67.3502 44.1733C66.9961 44.1733 66.6743 44.238 66.3839 44.3674C66.0935 44.4967 65.8408 44.7426 65.6262 45.1049C65.4116 45.4542 65.2412 45.9459 65.1145 46.5799C65.0012 47.2009 64.9442 48.0096 64.9442 49.0058V59.2531C64.9442 60.2493 65.0012 61.0648 65.1145 61.6989C65.2412 62.333 65.4116 62.831 65.6262 63.1932C65.8408 63.5428 66.0935 63.7881 66.3839 63.9303C66.687 64.0602 67.0156 64.1247 67.3689 64.1247ZM82.3113 62.0286C82.3113 61.4461 82.3615 60.8834 82.4633 60.34C82.5767 59.7966 82.6844 59.3631 82.7847 59.0402H86.1571C86.1571 60.0103 86.2015 60.825 86.2895 61.4852C86.3905 62.1324 86.5484 62.6497 86.7629 63.0378C86.9775 63.426 87.2618 63.7042 87.6153 63.8726C87.9818 64.0408 88.4233 64.1247 88.9418 64.1247C89.6611 64.1247 90.1855 63.9179 90.5135 63.5036C90.8422 63.0894 91.0065 62.6112 91.0065 62.0672C91.0065 61.7827 90.968 61.5113 90.8924 61.2523C90.8167 60.9934 90.7098 60.735 90.5709 60.476C90.432 60.204 90.2618 59.9326 90.0589 59.6612C89.8575 59.3891 89.6298 59.0917 89.3767 58.7681L85.8727 54.5375C85.4182 53.9549 84.976 53.3662 84.5469 52.7711C84.1302 52.1629 83.7571 51.5419 83.4291 50.9079C83.1135 50.2609 82.8546 49.5882 82.6524 48.8894C82.4633 48.1908 82.3687 47.4532 82.3687 46.6769C82.3687 45.6419 82.5389 44.7426 82.88 43.9792C83.2335 43.2158 83.7011 42.5819 84.2815 42.0772C84.8749 41.5726 85.5571 41.1973 86.3273 40.9515C87.0982 40.7057 87.9127 40.5828 88.7709 40.5828C89.7185 40.5828 90.5709 40.6992 91.3287 40.9321C92.0858 41.165 92.7367 41.5144 93.28 41.9802C93.8225 42.446 94.2393 43.0282 94.5295 43.7269C94.8196 44.4126 94.9658 45.2148 94.9658 46.1335C94.9658 46.7545 94.9084 47.3562 94.7949 47.9384C94.6938 48.5206 94.5927 49.0188 94.4924 49.4329H91.1767C91.1644 48.553 91.1265 47.7832 91.0633 47.1233C91 46.4634 90.88 45.92 90.7033 45.4931C90.5389 45.0531 90.3055 44.7231 90.0029 44.5032C89.712 44.2833 89.3265 44.1733 88.8465 44.1733C88.4305 44.1733 88.0829 44.2445 87.8051 44.3868C87.5273 44.5162 87.2996 44.6908 87.1229 44.9108C86.9593 45.1308 86.8393 45.3766 86.7629 45.6483C86.7004 45.92 86.6684 46.1982 86.6684 46.4829C86.6684 47.1039 86.8138 47.6796 87.104 48.2102C87.3942 48.7406 87.7796 49.3164 88.2596 49.9374L92.0858 54.5375C92.3636 54.8865 92.6865 55.3138 93.0524 55.8181C93.4182 56.31 93.7658 56.8596 94.0946 57.4676C94.4226 58.0632 94.7004 58.7166 94.928 59.4277C95.1549 60.1394 95.2684 60.8834 95.2684 61.6598C95.2684 62.6044 95.1229 63.4645 94.8327 64.2409C94.5425 65.0048 94.1134 65.6581 93.5447 66.2015C92.9767 66.7449 92.2756 67.1654 91.4422 67.4629C90.6211 67.7604 89.68 67.9095 88.6196 67.9095C87.7484 67.9095 86.9273 67.812 86.1571 67.6182C85.3869 67.4113 84.7171 67.081 84.1491 66.6282C83.5811 66.1624 83.1324 65.5544 82.8044 64.8042C82.4756 64.0533 82.3113 63.1286 82.3113 62.0286Z" fill="#D3AB75"/>
</g>
<g filter="url(#filter4_i)">
<path d="M63.7217 7.27393V27.8632" stroke="#C9AF6E"/>
</g>
<defs>
<filter id="filter0_i" x="69.2899" y="7.07959" width="25.2271" height="16.7979" filterUnits="userSpaceOnUse" color-interpolation-filters="sRGB">
<feFlood flood-opacity="0" result="BackgroundImageFix"/>
<feBlend mode="normal" in="SourceGraphic" in2="BackgroundImageFix" result="shape"/>
<feColorMatrix in="SourceAlpha" type="matrix" values="0 0 0 0 0 0 0 0 0 0 0 0 0 0 0 0 0 0 127 0" result="hardAlpha"/>
<feOffset dy="4"/>
<feGaussianBlur stdDeviation="2"/>
<feComposite in2="hardAlpha" operator="arithmetic" k2="-1" k3="1"/>
<feColorMatrix type="matrix" values="0 0 0 0 0 0 0 0 0 0 0 0 0 0 0 0 0 0 0.25 0"/>
<feBlend mode="normal" in2="shape" result="effect1_innerShadow"/>
</filter>
<filter id="filter1_i" x="70.0172" y="22.9941" width="25.9543" height="8.84043" filterUnits="userSpaceOnUse" color-interpolation-filters="sRGB">
<feFlood flood-opacity="0" result="BackgroundImageFix"/>
<feBlend mode="normal" in="SourceGraphic" in2="BackgroundImageFix" result="shape"/>
<feColorMatrix in="SourceAlpha" type="matrix" values="0 0 0 0 0 0 0 0 0 0 0 0 0 0 0 0 0 0 127 0" result="hardAlpha"/>
<feOffset dy="4"/>
<feGaussianBlur stdDeviation="2"/>
<feComposite in2="hardAlpha" operator="arithmetic" k2="-1" k3="1"/>
<feColorMatrix type="matrix" values="0 0 0 0 0 0 0 0 0 0 0 0 0 0 0 0 0 0 0.25 0"/>
<feBlend mode="normal" in2="shape" result="effect1_innerShadow"/>
</filter>
<filter id="filter2_i" x="0" y="0" width="56.9537" height="32.083" filterUnits="userSpaceOnUse" color-interpolation-filters="sRGB">
<feFlood flood-opacity="0" result="BackgroundImageFix"/>
<feBlend mode="normal" in="SourceGraphic" in2="BackgroundImageFix" result="shape"/>
<feColorMatrix in="SourceAlpha" type="matrix" values="0 0 0 0 0 0 0 0 0 0 0 0 0 0 0 0 0 0 127 0" result="hardAlpha"/>
<feOffset dy="4"/>
<feGaussianBlur stdDeviation="2"/>
<feComposite in2="hardAlpha" operator="arithmetic" k2="-1" k3="1"/>
<feColorMatrix type="matrix" values="0 0 0 0 0 0 0 0 0 0 0 0 0 0 0 0 0 0 0.25 0"/>
<feBlend mode="normal" in2="shape" result="effect1_innerShadow"/>
</filter>
<filter id="filter3_i" x="0.832741" y="32.3149" width="94.4356" height="39.6138" filterUnits="userSpaceOnUse" color-interpolation-filters="sRGB">
<feFlood flood-opacity="0" result="BackgroundImageFix"/>
<feBlend mode="normal" in="SourceGraphic" in2="BackgroundImageFix" result="shape"/>
<feColorMatrix in="SourceAlpha" type="matrix" values="0 0 0 0 0 0 0 0 0 0 0 0 0 0 0 0 0 0 127 0" result="hardAlpha"/>
<feOffset dy="4"/>
<feGaussianBlur stdDeviation="2"/>
<feComposite in2="hardAlpha" operator="arithmetic" k2="-1" k3="1"/>
<feColorMatrix type="matrix" values="0 0 0 0 0 0 0 0 0 0 0 0 0 0 0 0 0 0 0.25 0"/>
<feBlend mode="normal" in2="shape" result="effect1_innerShadow"/>
</filter>
<filter id="filter4_i" x="63.2217" y="7.27393" width="1" height="24.5892" filterUnits="userSpaceOnUse" color-interpolation-filters="sRGB">
<feFlood flood-opacity="0" result="BackgroundImageFix"/>
<feBlend mode="normal" in="SourceGraphic" in2="BackgroundImageFix" result="shape"/>
<feColorMatrix in="SourceAlpha" type="matrix" values="0 0 0 0 0 0 0 0 0 0 0 0 0 0 0 0 0 0 127 0" result="hardAlpha"/>
<feOffset dy="4"/>
<feGaussianBlur stdDeviation="2"/>
<feComposite in2="hardAlpha" operator="arithmetic" k2="-1" k3="1"/>
<feColorMatrix type="matrix" values="0 0 0 0 0 0 0 0 0 0 0 0 0 0 0 0 0 0 0.25 0"/>
<feBlend mode="normal" in2="shape" result="effect1_innerShadow"/>
</filter>
</defs>
</svg>
