<svg width="96" height="68" viewBox="0 0 96 68" fill="none" xmlns="http://www.w3.org/2000/svg">
<g filter="url(#filter0_i)">
<path d="M69.5399 7.40176H72.7136V7.8494H71.3831V11.5425H70.8704V7.8494H69.5399V7.40176ZM76.7702 8.58669C76.7702 8.92901 76.6793 9.2055 76.4975 9.41615C76.3201 9.62681 76.0561 9.76288 75.7055 9.82429L76.8735 11.5425H76.2117L75.1535 9.85063H74.4401V11.5425H73.9273V7.40176H75.3484C75.8073 7.40176 76.1579 7.51367 76.4001 7.73749C76.6466 7.96131 76.7702 8.24438 76.7702 8.58669ZM75.3099 9.48856C75.6168 9.48856 75.8481 9.41398 76.0044 9.26474C76.1644 9.11116 76.2444 8.91143 76.2444 8.66569C76.2444 8.41554 76.1666 8.21805 76.0102 8.07322C75.859 7.92406 75.6386 7.8494 75.3484 7.8494H74.4401V9.48856H75.3099ZM79.3412 7.40176H79.9644L81.3339 11.5425H80.8015L80.451 10.4892H78.8284L78.4779 11.5425H77.9397L79.3412 7.40176ZM78.9652 10.081H80.3215L79.6466 8.04031L78.9652 10.081ZM83.2757 7.40176L85.3004 10.7262V7.40176H85.8132V11.5425H85.2422L83.1848 8.17197V11.5425H82.6655V7.40176H83.2757ZM89.8153 8.40895C89.7412 8.00522 89.4495 7.80332 88.939 7.80332C88.6663 7.80332 88.4561 7.86481 88.3092 7.98764C88.1623 8.10614 88.0888 8.25096 88.0888 8.42212C88.0888 8.58886 88.1339 8.71618 88.2248 8.80393C88.3157 8.89168 88.4626 8.96851 88.6663 9.03434L89.5164 9.33057C89.8066 9.43149 90.0357 9.56973 90.2044 9.7453C90.3775 9.92087 90.4641 10.1688 90.4641 10.4892C90.4641 10.8052 90.3295 11.0728 90.0619 11.2923C89.7935 11.5073 89.4342 11.6149 88.9841 11.6149C88.5346 11.6149 88.1644 11.5007 87.8743 11.2726C87.5892 11.0399 87.4415 10.7152 87.4328 10.2983H87.9332C87.9332 10.5703 88.0262 10.7788 88.2117 10.9237C88.4023 11.0685 88.6444 11.1409 88.939 11.1409C89.2372 11.1409 89.4735 11.0751 89.6466 10.9434C89.819 10.8073 89.9055 10.6493 89.9055 10.4694C89.9055 10.2851 89.8517 10.1403 89.7433 10.035C89.6401 9.92962 89.4837 9.84187 89.2764 9.77163L88.5557 9.50173C88.2183 9.38765 87.963 9.25158 87.7899 9.09358C87.6168 8.93559 87.5302 8.70519 87.5302 8.40237C87.5302 8.09521 87.6517 7.84065 87.8939 7.63875C88.1361 7.4325 88.4757 7.32935 88.9128 7.32935C89.3499 7.32935 89.683 7.42809 89.9121 7.62558C90.1462 7.81873 90.2801 8.07981 90.315 8.40895H89.8153ZM72.6812 18.8438C72.4994 19.3661 72.1468 19.6272 71.6233 19.6272C71.0997 19.6272 70.6692 19.4341 70.3317 19.0479C69.9985 18.6618 69.832 18.1417 69.832 17.4878C69.832 16.8339 70.0137 16.3139 70.3772 15.9277C70.7449 15.5414 71.2014 15.3484 71.7465 15.3484C72.0668 15.3484 72.3458 15.4142 72.5838 15.5458C72.8262 15.6775 73.0335 15.8882 73.2066 16.1778L72.7136 16.349C72.4324 15.9935 72.1035 15.8157 71.7271 15.8157C71.3507 15.8157 71.0305 15.9716 70.7665 16.2831C70.507 16.5947 70.3772 17.0007 70.3772 17.501C70.3772 17.9969 70.4897 18.3963 70.7146 18.6991C70.9396 19.0018 71.2425 19.1532 71.6233 19.1532C71.9348 19.1532 72.1857 19.0479 72.3761 18.8373C72.5665 18.6267 72.6617 18.315 72.6617 17.9026V17.8894L71.6362 17.8499V17.5076H73.1615V19.5548H72.7462L72.6812 18.8438ZM75.3717 19.1006H77.1892V19.5548H74.859V15.4142H75.3717V19.1006ZM79.8546 15.3418C80.3826 15.3418 80.8088 15.5261 81.1332 15.8947C81.4619 16.259 81.627 16.7922 81.627 17.4944C81.627 18.1922 81.4641 18.7232 81.1397 19.0874C80.8153 19.4473 80.387 19.6272 79.8546 19.6272C79.323 19.6272 78.8946 19.4451 78.5695 19.0808C78.2495 18.7123 78.0895 18.1812 78.0895 17.4878C78.0895 16.79 78.2495 16.259 78.5695 15.8947C78.8946 15.5261 79.323 15.3418 79.8546 15.3418ZM79.8546 15.8092C79.4742 15.8092 79.1732 15.954 78.9528 16.2436C78.7324 16.5333 78.6219 16.9502 78.6219 17.4944C78.6219 18.0386 78.7324 18.4511 78.9528 18.732C79.1732 19.0128 79.4742 19.1532 79.8546 19.1532C80.2357 19.1532 80.5361 19.0128 80.7572 18.732C80.9819 18.4511 81.0946 18.0386 81.0946 17.4944C81.0946 16.9502 80.9819 16.5333 80.7572 16.2436C80.5361 15.954 80.2357 15.8092 79.8546 15.8092ZM83.1288 15.4142H84.6539C85.0822 15.4142 85.411 15.5173 85.6401 15.7236C85.8742 15.9298 85.9906 16.1888 85.9906 16.5004C85.9906 16.7374 85.9259 16.9436 85.7964 17.1192C85.6706 17.2947 85.4779 17.4132 85.2183 17.4747C85.4735 17.5185 85.6772 17.6304 85.8284 17.8104C85.9841 17.9903 86.0626 18.1944 86.0626 18.4226C86.0626 18.9317 85.8175 19.2762 85.3288 19.4561C85.147 19.5219 84.9244 19.5548 84.6604 19.5548H83.1288V15.4142ZM84.6473 19.1006C84.9586 19.1006 85.1819 19.037 85.3157 18.9097C85.4502 18.7824 85.5172 18.6135 85.5172 18.4029C85.5172 18.1922 85.4437 18.0254 85.2968 17.9026C85.1492 17.7752 84.9332 17.7116 84.6473 17.7116H83.6415V19.1006H84.6473ZM83.6415 17.264H84.6408C84.8917 17.264 85.091 17.2025 85.2379 17.0797C85.3892 16.9524 85.4655 16.779 85.4655 16.5596C85.4655 16.3402 85.3913 16.1691 85.2444 16.0462C85.1019 15.9232 84.9004 15.8618 84.6408 15.8618H83.6415V17.264ZM88.6008 15.4142H89.2233L90.5928 19.5548H90.0612L89.7106 18.5016H88.0881L87.7375 19.5548H87.1986L88.6008 15.4142ZM88.2241 18.0935H89.5804L88.9055 16.0527L88.2241 18.0935ZM92.4503 19.1006H94.267V19.5548H91.9375V15.4142H92.4503V19.1006Z" fill="#C9AF6E"/>
</g>
<path d="M69.5399 7.40176H72.7136V7.8494H71.3831V11.5425H70.8704V7.8494H69.5399V7.40176ZM76.7702 8.58669C76.7702 8.92901 76.6793 9.2055 76.4975 9.41615C76.3201 9.62681 76.0561 9.76288 75.7055 9.82429L76.8735 11.5425H76.2117L75.1535 9.85063H74.4401V11.5425H73.9273V7.40176H75.3484C75.8073 7.40176 76.1579 7.51367 76.4001 7.73749C76.6466 7.96131 76.7702 8.24438 76.7702 8.58669ZM75.3099 9.48856C75.6168 9.48856 75.8481 9.41398 76.0044 9.26474C76.1644 9.11116 76.2444 8.91143 76.2444 8.66569C76.2444 8.41554 76.1666 8.21805 76.0102 8.07322C75.859 7.92406 75.6386 7.8494 75.3484 7.8494H74.4401V9.48856H75.3099ZM79.3412 7.40176H79.9644L81.3339 11.5425H80.8015L80.451 10.4892H78.8284L78.4779 11.5425H77.9397L79.3412 7.40176ZM78.9652 10.081H80.3215L79.6466 8.04031L78.9652 10.081ZM83.2757 7.40176L85.3004 10.7262V7.40176H85.8132V11.5425H85.2422L83.1848 8.17197V11.5425H82.6655V7.40176H83.2757ZM89.8153 8.40895C89.7412 8.00522 89.4495 7.80332 88.939 7.80332C88.6663 7.80332 88.4561 7.86481 88.3092 7.98764C88.1623 8.10614 88.0888 8.25096 88.0888 8.42212C88.0888 8.58886 88.1339 8.71618 88.2248 8.80393C88.3157 8.89168 88.4626 8.96851 88.6663 9.03434L89.5164 9.33057C89.8066 9.43149 90.0357 9.56973 90.2044 9.7453C90.3775 9.92087 90.4641 10.1688 90.4641 10.4892C90.4641 10.8052 90.3295 11.0728 90.0619 11.2923C89.7935 11.5073 89.4342 11.6149 88.9841 11.6149C88.5346 11.6149 88.1644 11.5007 87.8743 11.2726C87.5892 11.0399 87.4415 10.7152 87.4328 10.2983H87.9332C87.9332 10.5703 88.0262 10.7788 88.2117 10.9237C88.4023 11.0685 88.6444 11.1409 88.939 11.1409C89.2372 11.1409 89.4735 11.0751 89.6466 10.9434C89.819 10.8073 89.9055 10.6493 89.9055 10.4694C89.9055 10.2851 89.8517 10.1403 89.7433 10.035C89.6401 9.92962 89.4837 9.84187 89.2764 9.77163L88.5557 9.50173C88.2183 9.38765 87.963 9.25158 87.7899 9.09358C87.6168 8.93559 87.5302 8.70519 87.5302 8.40237C87.5302 8.09521 87.6517 7.84065 87.8939 7.63875C88.1361 7.4325 88.4757 7.32935 88.9128 7.32935C89.3499 7.32935 89.683 7.42809 89.9121 7.62558C90.1462 7.81873 90.2801 8.07981 90.315 8.40895H89.8153ZM72.6812 18.8438C72.4994 19.3661 72.1468 19.6272 71.6233 19.6272C71.0997 19.6272 70.6692 19.4341 70.3317 19.0479C69.9985 18.6618 69.832 18.1417 69.832 17.4878C69.832 16.8339 70.0137 16.3139 70.3772 15.9277C70.7449 15.5414 71.2014 15.3484 71.7465 15.3484C72.0668 15.3484 72.3458 15.4142 72.5838 15.5458C72.8262 15.6775 73.0335 15.8882 73.2066 16.1778L72.7136 16.349C72.4324 15.9935 72.1035 15.8157 71.7271 15.8157C71.3507 15.8157 71.0305 15.9716 70.7665 16.2831C70.507 16.5947 70.3772 17.0007 70.3772 17.501C70.3772 17.9969 70.4897 18.3963 70.7146 18.6991C70.9396 19.0018 71.2425 19.1532 71.6233 19.1532C71.9348 19.1532 72.1857 19.0479 72.3761 18.8373C72.5665 18.6267 72.6617 18.315 72.6617 17.9026V17.8894L71.6362 17.8499V17.5076H73.1615V19.5548H72.7462L72.6812 18.8438ZM75.3717 19.1006H77.1892V19.5548H74.859V15.4142H75.3717V19.1006ZM79.8546 15.3418C80.3826 15.3418 80.8088 15.5261 81.1332 15.8947C81.4619 16.259 81.627 16.7922 81.627 17.4944C81.627 18.1922 81.4641 18.7232 81.1397 19.0874C80.8153 19.4473 80.387 19.6272 79.8546 19.6272C79.323 19.6272 78.8946 19.4451 78.5695 19.0808C78.2495 18.7123 78.0895 18.1812 78.0895 17.4878C78.0895 16.79 78.2495 16.259 78.5695 15.8947C78.8946 15.5261 79.323 15.3418 79.8546 15.3418ZM79.8546 15.8092C79.4742 15.8092 79.1732 15.954 78.9528 16.2436C78.7324 16.5333 78.6219 16.9502 78.6219 17.4944C78.6219 18.0386 78.7324 18.4511 78.9528 18.732C79.1732 19.0128 79.4742 19.1532 79.8546 19.1532C80.2357 19.1532 80.5361 19.0128 80.7572 18.732C80.9819 18.4511 81.0946 18.0386 81.0946 17.4944C81.0946 16.9502 80.9819 16.5333 80.7572 16.2436C80.5361 15.954 80.2357 15.8092 79.8546 15.8092ZM83.1288 15.4142H84.6539C85.0822 15.4142 85.411 15.5173 85.6401 15.7236C85.8742 15.9298 85.9906 16.1888 85.9906 16.5004C85.9906 16.7374 85.9259 16.9436 85.7964 17.1192C85.6706 17.2947 85.4779 17.4132 85.2183 17.4747C85.4735 17.5185 85.6772 17.6304 85.8284 17.8104C85.9841 17.9903 86.0626 18.1944 86.0626 18.4226C86.0626 18.9317 85.8175 19.2762 85.3288 19.4561C85.147 19.5219 84.9244 19.5548 84.6604 19.5548H83.1288V15.4142ZM84.6473 19.1006C84.9586 19.1006 85.1819 19.037 85.3157 18.9097C85.4502 18.7824 85.5172 18.6135 85.5172 18.4029C85.5172 18.1922 85.4437 18.0254 85.2968 17.9026C85.1492 17.7752 84.9332 17.7116 84.6473 17.7116H83.6415V19.1006H84.6473ZM83.6415 17.264H84.6408C84.8917 17.264 85.091 17.2025 85.2379 17.0797C85.3892 16.9524 85.4655 16.779 85.4655 16.5596C85.4655 16.3402 85.3913 16.1691 85.2444 16.0462C85.1019 15.9232 84.9004 15.8618 84.6408 15.8618H83.6415V17.264ZM88.6008 15.4142H89.2233L90.5928 19.5548H90.0612L89.7106 18.5016H88.0881L87.7375 19.5548H87.1986L88.6008 15.4142ZM88.2241 18.0935H89.5804L88.9055 16.0527L88.2241 18.0935ZM92.4503 19.1006H94.267V19.5548H91.9375V15.4142H92.4503V19.1006Z" stroke="#C9AF6E" stroke-width="0.5"/>
<g filter="url(#filter1_i)">
<path d="M70.7808 27.1086H72.601V27.5847H70.2672V23.2443H70.7808V27.1086ZM73.8284 23.2443H74.3418V27.5847H73.8284V23.2443ZM76.9048 23.2443L78.2829 26.1839L79.648 23.2443H80.3695V27.5847H79.856V24.0171L78.4517 27.0396H78.1077L76.6837 23.9688V27.5847H76.1702V23.2443H76.9048ZM82.2007 23.2443H82.7142V27.5847H82.2007V23.2443ZM83.9258 23.2443H87.1047V23.7135H85.7724V27.5847H85.2589V23.7135H83.9258V23.2443ZM88.3142 23.2443H90.8298V23.7135H88.8277V25.1695H90.7127V25.6319H88.8277V27.1086H90.8298V27.5847H88.3142V23.2443ZM93.6866 23.2443C94.3026 23.2443 94.7942 23.4421 95.1629 23.8377C95.5353 24.2287 95.7215 24.7555 95.7215 25.4179C95.7215 26.0758 95.5353 26.6025 95.1629 26.9982C94.7942 27.3892 94.3026 27.5847 93.6866 27.5847H92.4844V23.2443H93.6866ZM92.9978 27.1086H93.6866C94.1418 27.1086 94.504 26.9499 94.7724 26.6325C95.0415 26.3104 95.1753 25.9033 95.1753 25.4111C95.1753 24.9188 95.0393 24.5163 94.7658 24.2034C94.4975 23.8861 94.1375 23.7273 93.6866 23.7273H92.9978V27.1086Z" fill="#C9AF6E"/>
</g>
<path d="M70.7808 27.1086H72.601V27.5847H70.2672V23.2443H70.7808V27.1086ZM73.8284 23.2443H74.3418V27.5847H73.8284V23.2443ZM76.9048 23.2443L78.2829 26.1839L79.648 23.2443H80.3695V27.5847H79.856V24.0171L78.4517 27.0396H78.1077L76.6837 23.9688V27.5847H76.1702V23.2443H76.9048ZM82.2007 23.2443H82.7142V27.5847H82.2007V23.2443ZM83.9258 23.2443H87.1047V23.7135H85.7724V27.5847H85.2589V23.7135H83.9258V23.2443ZM88.3142 23.2443H90.8298V23.7135H88.8277V25.1695H90.7127V25.6319H88.8277V27.1086H90.8298V27.5847H88.3142V23.2443ZM93.6866 23.2443C94.3026 23.2443 94.7942 23.4421 95.1629 23.8377C95.5353 24.2287 95.7215 24.7555 95.7215 25.4179C95.7215 26.0758 95.5353 26.6025 95.1629 26.9982C94.7942 27.3892 94.3026 27.5847 93.6866 27.5847H92.4844V23.2443H93.6866ZM92.9978 27.1086H93.6866C94.1418 27.1086 94.504 26.9499 94.7724 26.6325C95.0415 26.3104 95.1753 25.9033 95.1753 25.4111C95.1753 24.9188 95.0393 24.5163 94.7658 24.2034C94.4975 23.8861 94.1375 23.7273 93.6866 23.7273H92.9978V27.1086Z" stroke="#C9AF6E" stroke-width="0.5"/>
<g filter="url(#filter2_i)">
<path d="M0 2.80241H3.88148L6.63513 22.6542H6.79628L9.56458 2.80241H13.4314L8.87615 27.8629H4.5406L0 2.80241ZM20.6055 4.76851C19.922 4.76851 19.3801 4.56312 18.9797 4.15228C18.5892 3.74144 18.3938 3.1399 18.3938 2.34761C18.3938 1.90739 18.4427 1.54062 18.5403 1.24714C18.6477 0.943927 18.7942 0.704256 18.9797 0.528207C19.175 0.342359 19.4094 0.210305 19.6828 0.132055C19.9562 0.0440166 20.2687 0 20.6202 0C21.3526 0 21.9091 0.185854 22.29 0.55755C22.6708 0.929234 22.8612 1.52593 22.8612 2.34761C22.8612 3.11058 22.6659 3.70722 22.2753 4.13764C21.8945 4.55822 21.3379 4.76851 20.6055 4.76851ZM18.6868 7.65904H22.3924V27.8629H18.6868V7.65904ZM33.9754 28.083C32.2764 28.083 30.9776 27.3836 30.0793 25.9848C29.1907 24.5861 28.7464 22.4537 28.7464 19.5877V15.7728C28.7464 14.4915 28.8391 13.3959 29.0247 12.4862C29.2103 11.5667 29.4543 10.7989 29.7571 10.1826C30.0695 9.5566 30.4211 9.06266 30.8116 8.70074C31.212 8.33883 31.6221 8.06494 32.042 7.8791C32.4619 7.68342 32.8769 7.56117 33.287 7.51226C33.6971 7.4536 34.0731 7.42423 34.4148 7.42423C35.0984 7.42423 35.7233 7.51718 36.2897 7.70303C36.8561 7.8791 37.3443 8.15298 37.7543 8.52467C38.1644 8.88659 38.4818 9.34631 38.7064 9.90391C38.931 10.4614 39.0433 11.1168 39.0433 11.87C39.0433 12.3395 39.0189 12.7454 38.97 13.0878C38.931 13.4204 38.8724 13.7432 38.7943 14.0562H35.8356V13.3812C35.8356 12.364 35.7135 11.5716 35.4695 11.0043C35.2351 10.4272 34.8445 10.1386 34.2977 10.1386C33.995 10.1386 33.7313 10.212 33.5068 10.3587C33.2821 10.4957 33.0917 10.7353 32.9354 11.0776C32.789 11.42 32.6767 11.8797 32.5986 12.4569C32.5302 13.034 32.4961 13.7578 32.4961 14.6284V20.3653C32.4961 21.2457 32.5254 21.9939 32.5839 22.6101C32.6425 23.2264 32.7451 23.7302 32.8915 24.1215C33.038 24.5029 33.2333 24.7817 33.4774 24.9578C33.7215 25.1338 34.0242 25.2219 34.3855 25.2219C34.5711 25.2219 34.7517 25.1779 34.9275 25.0898C35.1033 24.992 35.2545 24.8356 35.3815 24.6203C35.5182 24.4051 35.6257 24.1215 35.7038 23.7693C35.7916 23.4074 35.8356 22.9624 35.8356 22.4341V21.8033H39.0287V22.5808C39.0287 24.498 38.6039 25.8968 37.7543 26.7772C36.9146 27.6477 35.6549 28.083 33.9754 28.083ZM45.1043 1.1738H48.81V16.5358H48.9271L52.9698 7.65904H56.5287L52.047 16.9026L56.9537 27.8629H53.1748L48.9271 17.8417H48.81V27.8629H45.1043V1.1738Z" fill="#D3AB75"/>
</g>
<g filter="url(#filter3_i)">
<path d="M0.832764 34.469H13.2027V38.4283H5.73903V48.3458H11.5925V52.305H5.73903V67.6179H0.832764V34.469ZM26.6297 67.9092C26.074 67.9092 25.5057 67.8639 24.9248 67.7732C24.3565 67.6825 23.8008 67.4949 23.2578 67.2105C22.7274 66.9255 22.2222 66.518 21.7423 65.9876C21.275 65.4572 20.8646 64.7586 20.511 63.8916C20.1574 63.0246 19.8795 61.957 19.6775 60.6894C19.4754 59.4212 19.3744 57.9077 19.3744 56.1476V51.9556C19.3744 50.2218 19.4754 48.7404 19.6775 47.5112C19.8922 46.2691 20.1763 45.2275 20.53 44.3866C20.8962 43.5455 21.3192 42.8792 21.7992 42.3875C22.2791 41.8829 22.7842 41.5012 23.3146 41.2424C23.8576 40.9707 24.4133 40.796 24.9816 40.7184C25.5499 40.6278 26.1056 40.5826 26.6486 40.5826C27.1664 40.5826 27.7031 40.6213 28.2588 40.699C28.8144 40.7766 29.3576 40.9448 29.888 41.2037C30.4184 41.4495 30.9172 41.8247 31.3844 42.3292C31.8643 42.8209 32.2811 43.4872 32.6346 44.3283C33.0009 45.1693 33.285 46.2174 33.4872 47.4724C33.7018 48.7145 33.8092 50.209 33.8092 51.9556V56.1476C33.8092 57.8816 33.7018 59.3759 33.4872 60.6311C33.2725 61.8862 32.982 62.947 32.6157 63.814C32.2495 64.681 31.8264 65.3858 31.3465 65.9293C30.8666 66.4597 30.3615 66.8739 29.8311 67.1713C29.3007 67.4689 28.7576 67.6633 28.202 67.7539C27.6589 67.857 27.1349 67.9092 26.6297 67.9092ZM26.6676 64.1244C27.097 64.1244 27.4568 64.0146 27.7473 63.7947C28.0504 63.5618 28.2903 63.1867 28.4671 62.6687C28.6566 62.1514 28.7893 61.4719 28.865 60.6311C28.9534 59.7771 28.9976 58.7225 28.9976 57.4674V50.8882C28.9976 49.6332 28.9534 48.5787 28.865 47.7247C28.7893 46.8708 28.6566 46.185 28.4671 45.6674C28.2903 45.137 28.0504 44.7553 27.7473 44.5224C27.4568 44.2895 27.097 44.173 26.6676 44.173C26.213 44.173 25.8277 44.2895 25.512 44.5224C25.2089 44.7553 24.9563 45.137 24.7543 45.6674C24.5522 46.185 24.407 46.8708 24.3186 47.7247C24.2302 48.5787 24.186 49.6332 24.186 50.8882V57.4674C24.186 58.7225 24.2302 59.7771 24.3186 60.6311C24.407 61.4719 24.5522 62.1514 24.7543 62.6687C24.9563 63.1867 25.2089 63.5618 25.512 63.7947C25.8277 64.0146 26.213 64.1244 26.6676 64.1244ZM41.932 40.8931H45.4365L45.8533 43.6102C46.3837 42.601 46.9899 41.8441 47.6718 41.3395C48.3664 40.8349 49.0736 40.5826 49.7935 40.5826C51.17 40.5826 52.1866 41.016 52.8433 41.8829C53.5 42.7497 53.8284 44.0501 53.8284 45.7839C53.8284 46.0038 53.8095 46.2691 53.7716 46.5797C53.7463 46.8773 53.7021 47.1943 53.6389 47.5306C53.5885 47.8541 53.5189 48.184 53.4306 48.5204C53.3548 48.8439 53.2727 49.1415 53.1843 49.4132H49.8503V46.929C49.8503 46.3856 49.8124 45.9392 49.7366 45.5898C49.6735 45.2405 49.5851 44.9623 49.4714 44.7553C49.3578 44.5353 49.2252 44.3866 49.0736 44.309C48.9221 44.2183 48.7579 44.173 48.5811 44.173C48.2023 44.173 47.8486 44.3024 47.5203 44.5612C47.2045 44.807 46.9393 45.1564 46.7247 45.6092V67.6179H41.932V40.8931ZM65.7396 67.9285C65.4492 67.9285 65.1085 67.8961 64.717 67.8315C64.3253 67.7794 63.921 67.6502 63.5045 67.4434C63.0875 67.2359 62.6771 66.9255 62.2734 66.5118C61.8691 66.0976 61.509 65.5349 61.1932 64.8232C60.878 64.0984 60.6192 63.2059 60.4167 62.1451C60.2275 61.0838 60.1324 59.7963 60.1324 58.2828V49.8013C60.1324 48.3005 60.2336 47.0325 60.4354 45.9974C60.6506 44.9623 60.9283 44.1084 61.269 43.4355C61.6103 42.7497 61.9891 42.2193 62.4056 41.8441C62.8354 41.4559 63.2585 41.1713 63.6749 40.9901C64.1047 40.809 64.5084 40.699 64.8873 40.6603C65.2789 40.6213 65.6008 40.6019 65.8536 40.6019C66.3209 40.6019 66.7628 40.6667 67.1792 40.796C67.5963 40.9254 67.9752 41.1001 68.3159 41.32C68.6571 41.5271 68.9602 41.7664 69.2251 42.0381C69.4906 42.297 69.7119 42.5622 69.8883 42.8339L69.9071 42.8145L69.7555 39.4375V32.3147H74.5295V67.6179H70.7976L70.3811 65.1337C70.1665 65.4827 69.9198 65.8262 69.6422 66.1621C69.3645 66.4988 69.036 66.8031 68.6571 67.0745C68.2783 67.3335 67.8491 67.5403 67.369 67.6955C66.8889 67.8508 66.3458 67.9285 65.7396 67.9285ZM67.369 64.1244C67.6848 64.1244 67.9624 64.0729 68.2025 63.9692C68.4553 63.8531 68.6759 63.7102 68.8656 63.5425C69.0675 63.3612 69.2378 63.1538 69.3767 62.9215C69.5282 62.688 69.6549 62.4489 69.7555 62.2029V46.1332C69.5161 45.5898 69.1936 45.1305 68.7899 44.7553C68.3983 44.3671 67.9182 44.173 67.3502 44.173C66.9962 44.173 66.6743 44.2378 66.3839 44.3671C66.0936 44.4965 65.8408 44.7423 65.6262 45.1046C65.4116 45.454 65.2413 45.9457 65.1146 46.5797C65.0013 47.2007 64.9442 48.0094 64.9442 49.0056V59.2529C64.9442 60.2491 65.0013 61.0645 65.1146 61.6987C65.2413 62.3327 65.4116 62.8308 65.6262 63.1929C65.8408 63.5425 66.0936 63.7878 66.3839 63.9301C66.687 64.0599 67.0156 64.1244 67.369 64.1244ZM82.3113 62.0284C82.3113 61.4459 82.3615 60.8832 82.4633 60.3397C82.5768 59.7963 82.6844 59.3629 82.7848 59.0399H86.1571C86.1571 60.01 86.2015 60.8248 86.2895 61.485C86.3906 62.1321 86.5484 62.6495 86.7629 63.0376C86.9775 63.4258 87.2618 63.704 87.6153 63.8723C87.9818 64.0406 88.4233 64.1244 88.9418 64.1244C89.6611 64.1244 90.1855 63.9177 90.5135 63.5034C90.8422 63.0892 91.0066 62.6109 91.0066 62.0669C91.0066 61.7825 90.968 61.5111 90.8924 61.2521C90.8167 60.9931 90.7098 60.7347 90.5709 60.4757C90.432 60.2037 90.2618 59.9323 90.0589 59.661C89.8575 59.3889 89.6298 59.0914 89.3767 58.7679L85.8727 54.5372C85.4182 53.9547 84.976 53.366 84.5469 52.7708C84.1302 52.1627 83.7571 51.5416 83.4291 50.9076C83.1135 50.2607 82.8546 49.5879 82.6524 48.8892C82.4633 48.1905 82.3688 47.4529 82.3688 46.6767C82.3688 45.6416 82.5389 44.7423 82.88 43.9789C83.2335 43.2155 83.7011 42.5816 84.2815 42.077C84.8749 41.5724 85.5571 41.1971 86.3273 40.9513C87.0982 40.7055 87.9128 40.5826 88.7709 40.5826C89.7186 40.5826 90.5709 40.699 91.3288 40.9319C92.0858 41.1648 92.7367 41.5142 93.28 41.98C93.8226 42.4458 94.2393 43.028 94.5295 43.7266C94.8197 44.4124 94.9658 45.2146 94.9658 46.1332C94.9658 46.7543 94.9084 47.3559 94.7949 47.9382C94.6938 48.5204 94.5928 49.0186 94.4924 49.4326H91.1768C91.1644 48.5528 91.1266 47.783 91.0633 47.1231C91 46.4632 90.88 45.9198 90.7033 45.4928C90.5389 45.0529 90.3055 44.7229 90.0029 44.503C89.712 44.2831 89.3266 44.173 88.8466 44.173C88.4306 44.173 88.0829 44.2442 87.8051 44.3866C87.5273 44.5159 87.2997 44.6906 87.1229 44.9105C86.9593 45.1305 86.8393 45.3763 86.7629 45.648C86.7004 45.9198 86.6684 46.1979 86.6684 46.4826C86.6684 47.1037 86.8138 47.6794 87.104 48.2099C87.3942 48.7404 87.7797 49.3161 88.2597 49.9372L92.0858 54.5372C92.3637 54.8863 92.6866 55.3135 93.0524 55.8178C93.4182 56.3097 93.7658 56.8594 94.0946 57.4674C94.4226 58.063 94.7004 58.7163 94.928 59.4275C95.1549 60.1391 95.2684 60.8832 95.2684 61.6595C95.2684 62.6041 95.1229 63.4643 94.8328 64.2406C94.5426 65.0045 94.1135 65.6578 93.5447 66.2013C92.9767 66.7447 92.2757 67.1652 91.4422 67.4627C90.6211 67.7601 89.68 67.9092 88.6197 67.9092C87.7484 67.9092 86.9273 67.8117 86.1571 67.6179C85.3869 67.4111 84.7171 67.0807 84.1491 66.6279C83.5811 66.1621 83.1324 65.5542 82.8044 64.8039C82.4757 64.053 82.3113 63.1283 82.3113 62.0284Z" fill="#D3AB75"/>
</g>
<g filter="url(#filter4_i)">
<path d="M63.7217 7.2738V27.863" stroke="#C9AF6E"/>
</g>
<defs>
<filter id="filter0_i" x="69.2899" y="7.07935" width="25.2271" height="16.7979" filterUnits="userSpaceOnUse" color-interpolation-filters="sRGB">
<feFlood flood-opacity="0" result="BackgroundImageFix"/>
<feBlend mode="normal" in="SourceGraphic" in2="BackgroundImageFix" result="shape"/>
<feColorMatrix in="SourceAlpha" type="matrix" values="0 0 0 0 0 0 0 0 0 0 0 0 0 0 0 0 0 0 127 0" result="hardAlpha"/>
<feOffset dy="4"/>
<feGaussianBlur stdDeviation="2"/>
<feComposite in2="hardAlpha" operator="arithmetic" k2="-1" k3="1"/>
<feColorMatrix type="matrix" values="0 0 0 0 0 0 0 0 0 0 0 0 0 0 0 0 0 0 0.25 0"/>
<feBlend mode="normal" in2="shape" result="effect1_innerShadow"/>
</filter>
<filter id="filter1_i" x="70.0172" y="22.9943" width="25.9543" height="8.84043" filterUnits="userSpaceOnUse" color-interpolation-filters="sRGB">
<feFlood flood-opacity="0" result="BackgroundImageFix"/>
<feBlend mode="normal" in="SourceGraphic" in2="BackgroundImageFix" result="shape"/>
<feColorMatrix in="SourceAlpha" type="matrix" values="0 0 0 0 0 0 0 0 0 0 0 0 0 0 0 0 0 0 127 0" result="hardAlpha"/>
<feOffset dy="4"/>
<feGaussianBlur stdDeviation="2"/>
<feComposite in2="hardAlpha" operator="arithmetic" k2="-1" k3="1"/>
<feColorMatrix type="matrix" values="0 0 0 0 0 0 0 0 0 0 0 0 0 0 0 0 0 0 0.25 0"/>
<feBlend mode="normal" in2="shape" result="effect1_innerShadow"/>
</filter>
<filter id="filter2_i" x="0" y="0" width="56.9537" height="32.083" filterUnits="userSpaceOnUse" color-interpolation-filters="sRGB">
<feFlood flood-opacity="0" result="BackgroundImageFix"/>
<feBlend mode="normal" in="SourceGraphic" in2="BackgroundImageFix" result="shape"/>
<feColorMatrix in="SourceAlpha" type="matrix" values="0 0 0 0 0 0 0 0 0 0 0 0 0 0 0 0 0 0 127 0" result="hardAlpha"/>
<feOffset dy="4"/>
<feGaussianBlur stdDeviation="2"/>
<feComposite in2="hardAlpha" operator="arithmetic" k2="-1" k3="1"/>
<feColorMatrix type="matrix" values="0 0 0 0 0 0 0 0 0 0 0 0 0 0 0 0 0 0 0.25 0"/>
<feBlend mode="normal" in2="shape" result="effect1_innerShadow"/>
</filter>
<filter id="filter3_i" x="0.832764" y="32.3147" width="94.4356" height="39.6138" filterUnits="userSpaceOnUse" color-interpolation-filters="sRGB">
<feFlood flood-opacity="0" result="BackgroundImageFix"/>
<feBlend mode="normal" in="SourceGraphic" in2="BackgroundImageFix" result="shape"/>
<feColorMatrix in="SourceAlpha" type="matrix" values="0 0 0 0 0 0 0 0 0 0 0 0 0 0 0 0 0 0 127 0" result="hardAlpha"/>
<feOffset dy="4"/>
<feGaussianBlur stdDeviation="2"/>
<feComposite in2="hardAlpha" operator="arithmetic" k2="-1" k3="1"/>
<feColorMatrix type="matrix" values="0 0 0 0 0 0 0 0 0 0 0 0 0 0 0 0 0 0 0.25 0"/>
<feBlend mode="normal" in2="shape" result="effect1_innerShadow"/>
</filter>
<filter id="filter4_i" x="63.2217" y="7.2738" width="1" height="24.5892" filterUnits="userSpaceOnUse" color-interpolation-filters="sRGB">
<feFlood flood-opacity="0" result="BackgroundImageFix"/>
<feBlend mode="normal" in="SourceGraphic" in2="BackgroundImageFix" result="shape"/>
<feColorMatrix in="SourceAlpha" type="matrix" values="0 0 0 0 0 0 0 0 0 0 0 0 0 0 0 0 0 0 127 0" result="hardAlpha"/>
<feOffset dy="4"/>
<feGaussianBlur stdDeviation="2"/>
<feComposite in2="hardAlpha" operator="arithmetic" k2="-1" k3="1"/>
<feColorMatrix type="matrix" values="0 0 0 0 0 0 0 0 0 0 0 0 0 0 0 0 0 0 0.25 0"/>
<feBlend mode="normal" in2="shape" result="effect1_innerShadow"/>
</filter>
</defs>
</svg>
