<svg width="220" height="156" viewBox="0 0 220 156" fill="none" xmlns="http://www.w3.org/2000/svg">
<g filter="url(#filter0_i)">
<path d="M159.362 16.9806H166.635V18.0075H163.586V26.4798H162.411V18.0075H159.362V16.9806ZM175.932 19.699C175.932 20.4843 175.723 21.1186 175.307 21.6018C174.9 22.0851 174.295 22.3973 173.492 22.5382L176.168 26.4798H174.652L172.227 22.5986H170.592V26.4798H169.417V16.9806H172.673C173.725 16.9806 174.528 17.2373 175.083 17.7508C175.648 18.2643 175.932 18.9136 175.932 19.699ZM172.585 21.768C173.288 21.768 173.818 21.5968 174.177 21.2545C174.543 20.9022 174.727 20.4439 174.727 19.8802C174.727 19.3063 174.548 18.8532 174.19 18.521C173.843 18.1788 173.338 18.0075 172.673 18.0075H170.592V21.768H172.585ZM181.823 16.9806H183.252L186.39 26.4798H185.17L184.367 24.0635H180.648L179.845 26.4798H178.612L181.823 16.9806ZM180.962 23.1271H184.07L182.523 18.4455L180.962 23.1271ZM190.84 16.9806L195.48 24.6072V16.9806H196.655V26.4798H195.347L190.632 18.7475V26.4798H189.442V16.9806H190.84ZM205.827 19.2912C205.657 18.365 204.988 17.9018 203.818 17.9018C203.193 17.9018 202.712 18.0429 202.375 18.3247C202.038 18.5965 201.87 18.9288 201.87 19.3214C201.87 19.7039 201.973 19.996 202.182 20.1973C202.39 20.3986 202.727 20.5749 203.193 20.7259L205.142 21.4055C205.807 21.637 206.332 21.9542 206.718 22.3569C207.115 22.7597 207.313 23.3284 207.313 24.0635C207.313 24.7884 207.005 25.4024 206.392 25.9059C205.777 26.3992 204.953 26.6459 203.922 26.6459C202.892 26.6459 202.043 26.3841 201.378 25.8606C200.725 25.3269 200.387 24.5819 200.367 23.6255H201.513C201.513 24.2497 201.727 24.728 202.152 25.0602C202.588 25.3925 203.143 25.5586 203.818 25.5586C204.502 25.5586 205.043 25.4076 205.44 25.1055C205.835 24.7934 206.033 24.4309 206.033 24.0182C206.033 23.5953 205.91 23.2631 205.662 23.0214C205.425 22.7798 205.067 22.5785 204.592 22.4173L202.94 21.7982C202.167 21.5364 201.582 21.2243 201.185 20.8618C200.788 20.4994 200.59 19.9708 200.59 19.2761C200.59 18.5714 200.868 17.9874 201.423 17.5243C201.978 17.0511 202.757 16.8145 203.758 16.8145C204.76 16.8145 205.523 17.041 206.048 17.494C206.585 17.9372 206.892 18.5361 206.972 19.2912H205.827ZM166.561 43.2301C166.144 44.4283 165.336 45.0272 164.137 45.0272C162.937 45.0272 161.95 44.5843 161.177 43.6982C160.413 42.8123 160.032 41.6193 160.032 40.1192C160.032 38.6189 160.448 37.426 161.281 36.54C162.124 35.6539 163.17 35.211 164.419 35.211C165.153 35.211 165.792 35.362 166.338 35.6641C166.893 35.9661 167.368 36.4494 167.765 37.1139L166.635 37.5065C165.991 36.691 165.237 36.2833 164.375 36.2833C163.512 36.2833 162.778 36.6407 162.173 37.3555C161.578 38.0703 161.281 39.0016 161.281 40.1494C161.281 41.287 161.539 42.2033 162.054 42.898C162.57 43.5925 163.264 43.9399 164.137 43.9399C164.85 43.9399 165.426 43.6982 165.862 43.2151C166.298 42.7319 166.516 42.0169 166.516 41.0706V41.0404L164.166 40.9498V40.1645H167.662V44.8611H166.71L166.561 43.2301ZM172.727 43.819H176.892V44.8611H171.552V35.362H172.727V43.819ZM183 35.1959C184.21 35.1959 185.187 35.6188 185.93 36.4645C186.683 37.3001 187.062 38.5233 187.062 40.1343C187.062 41.7351 186.688 42.9532 185.945 43.7888C185.202 44.6145 184.22 45.0272 183 45.0272C181.782 45.0272 180.8 44.6095 180.055 43.7737C179.322 42.9282 178.955 41.7099 178.955 40.1192C178.955 38.5184 179.322 37.3001 180.055 36.4645C180.8 35.6188 181.782 35.1959 183 35.1959ZM183 36.2682C182.128 36.2682 181.438 36.6004 180.933 37.2649C180.428 37.9294 180.175 38.8858 180.175 40.1343C180.175 41.3826 180.428 42.3291 180.933 42.9735C181.438 43.6177 182.128 43.9399 183 43.9399C183.873 43.9399 184.562 43.6177 185.068 42.9735C185.583 42.3291 185.842 41.3826 185.842 40.1343C185.842 38.8858 185.583 37.9294 185.068 37.2649C184.562 36.6004 183.873 36.2682 183 36.2682ZM190.503 35.362H193.998C194.98 35.362 195.733 35.5987 196.258 36.0718C196.795 36.545 197.062 37.1391 197.062 37.8539C197.062 38.3976 196.913 38.8707 196.617 39.2735C196.328 39.6761 195.887 39.9479 195.292 40.089C195.877 40.1896 196.343 40.4463 196.69 40.8592C197.047 41.2719 197.227 41.7401 197.227 42.2637C197.227 43.4315 196.665 44.2218 195.545 44.6346C195.128 44.7856 194.618 44.8611 194.013 44.8611H190.503V35.362ZM193.983 43.819C194.697 43.819 195.208 43.6732 195.515 43.3811C195.823 43.0892 195.977 42.7017 195.977 42.2184C195.977 41.7351 195.808 41.3524 195.472 41.0706C195.133 40.7785 194.638 40.6327 193.983 40.6327H191.678V43.819H193.983ZM191.678 39.6057H193.968C194.543 39.6057 195 39.4647 195.337 39.1829C195.683 38.8908 195.858 38.4931 195.858 37.9898C195.858 37.4864 195.688 37.0938 195.352 36.8118C195.025 36.5299 194.563 36.389 193.968 36.389H191.678V39.6057ZM203.043 35.362H204.47L207.608 44.8611H206.39L205.587 42.4449H201.868L201.065 44.8611H199.83L203.043 35.362ZM202.18 41.5086H205.288L203.742 36.8269L202.18 41.5086ZM211.865 43.819H216.029V44.8611H210.69V35.362H211.865V43.819Z" fill="#082332"/>
</g>
<path d="M159.362 16.9806H166.635V18.0075H163.586V26.4798H162.411V18.0075H159.362V16.9806ZM175.932 19.699C175.932 20.4843 175.723 21.1186 175.307 21.6018C174.9 22.0851 174.295 22.3973 173.492 22.5382L176.168 26.4798H174.652L172.227 22.5986H170.592V26.4798H169.417V16.9806H172.673C173.725 16.9806 174.528 17.2373 175.083 17.7508C175.648 18.2643 175.932 18.9136 175.932 19.699ZM172.585 21.768C173.288 21.768 173.818 21.5968 174.177 21.2545C174.543 20.9022 174.727 20.4439 174.727 19.8802C174.727 19.3063 174.548 18.8532 174.19 18.521C173.843 18.1788 173.338 18.0075 172.673 18.0075H170.592V21.768H172.585ZM181.823 16.9806H183.252L186.39 26.4798H185.17L184.367 24.0635H180.648L179.845 26.4798H178.612L181.823 16.9806ZM180.962 23.1271H184.07L182.523 18.4455L180.962 23.1271ZM190.84 16.9806L195.48 24.6072V16.9806H196.655V26.4798H195.347L190.632 18.7475V26.4798H189.442V16.9806H190.84ZM205.827 19.2912C205.657 18.365 204.988 17.9018 203.818 17.9018C203.193 17.9018 202.712 18.0429 202.375 18.3247C202.038 18.5965 201.87 18.9288 201.87 19.3214C201.87 19.7039 201.973 19.996 202.182 20.1973C202.39 20.3986 202.727 20.5749 203.193 20.7259L205.142 21.4055C205.807 21.637 206.332 21.9542 206.718 22.3569C207.115 22.7597 207.313 23.3284 207.313 24.0635C207.313 24.7884 207.005 25.4024 206.392 25.9059C205.777 26.3992 204.953 26.6459 203.922 26.6459C202.892 26.6459 202.043 26.3841 201.378 25.8606C200.725 25.3269 200.387 24.5819 200.367 23.6255H201.513C201.513 24.2497 201.727 24.728 202.152 25.0602C202.588 25.3925 203.143 25.5586 203.818 25.5586C204.502 25.5586 205.043 25.4076 205.44 25.1055C205.835 24.7934 206.033 24.4309 206.033 24.0182C206.033 23.5953 205.91 23.2631 205.662 23.0214C205.425 22.7798 205.067 22.5785 204.592 22.4173L202.94 21.7982C202.167 21.5364 201.582 21.2243 201.185 20.8618C200.788 20.4994 200.59 19.9708 200.59 19.2761C200.59 18.5714 200.868 17.9874 201.423 17.5243C201.978 17.0511 202.757 16.8145 203.758 16.8145C204.76 16.8145 205.523 17.041 206.048 17.494C206.585 17.9372 206.892 18.5361 206.972 19.2912H205.827ZM166.561 43.2301C166.144 44.4283 165.336 45.0272 164.137 45.0272C162.937 45.0272 161.95 44.5843 161.177 43.6982C160.413 42.8123 160.032 41.6193 160.032 40.1192C160.032 38.6189 160.448 37.426 161.281 36.54C162.124 35.6539 163.17 35.211 164.419 35.211C165.153 35.211 165.792 35.362 166.338 35.6641C166.893 35.9661 167.368 36.4494 167.765 37.1139L166.635 37.5065C165.991 36.691 165.237 36.2833 164.375 36.2833C163.512 36.2833 162.778 36.6407 162.173 37.3555C161.578 38.0703 161.281 39.0016 161.281 40.1494C161.281 41.287 161.539 42.2033 162.054 42.898C162.57 43.5925 163.264 43.9399 164.137 43.9399C164.85 43.9399 165.426 43.6982 165.862 43.2151C166.298 42.7319 166.516 42.0169 166.516 41.0706V41.0404L164.166 40.9498V40.1645H167.662V44.8611H166.71L166.561 43.2301ZM172.727 43.819H176.892V44.8611H171.552V35.362H172.727V43.819ZM183 35.1959C184.21 35.1959 185.187 35.6188 185.93 36.4645C186.683 37.3001 187.062 38.5233 187.062 40.1343C187.062 41.7351 186.688 42.9532 185.945 43.7888C185.202 44.6145 184.22 45.0272 183 45.0272C181.782 45.0272 180.8 44.6095 180.055 43.7737C179.322 42.9282 178.955 41.7099 178.955 40.1192C178.955 38.5184 179.322 37.3001 180.055 36.4645C180.8 35.6188 181.782 35.1959 183 35.1959ZM183 36.2682C182.128 36.2682 181.438 36.6004 180.933 37.2649C180.428 37.9294 180.175 38.8858 180.175 40.1343C180.175 41.3826 180.428 42.3291 180.933 42.9735C181.438 43.6177 182.128 43.9399 183 43.9399C183.873 43.9399 184.562 43.6177 185.068 42.9735C185.583 42.3291 185.842 41.3826 185.842 40.1343C185.842 38.8858 185.583 37.9294 185.068 37.2649C184.562 36.6004 183.873 36.2682 183 36.2682ZM190.503 35.362H193.998C194.98 35.362 195.733 35.5987 196.258 36.0718C196.795 36.545 197.062 37.1391 197.062 37.8539C197.062 38.3976 196.913 38.8707 196.617 39.2735C196.328 39.6761 195.887 39.9479 195.292 40.089C195.877 40.1896 196.343 40.4463 196.69 40.8592C197.047 41.2719 197.227 41.7401 197.227 42.2637C197.227 43.4315 196.665 44.2218 195.545 44.6346C195.128 44.7856 194.618 44.8611 194.013 44.8611H190.503V35.362ZM193.983 43.819C194.697 43.819 195.208 43.6732 195.515 43.3811C195.823 43.0892 195.977 42.7017 195.977 42.2184C195.977 41.7351 195.808 41.3524 195.472 41.0706C195.133 40.7785 194.638 40.6327 193.983 40.6327H191.678V43.819H193.983ZM191.678 39.6057H193.968C194.543 39.6057 195 39.4647 195.337 39.1829C195.683 38.8908 195.858 38.4931 195.858 37.9898C195.858 37.4864 195.688 37.0938 195.352 36.8118C195.025 36.5299 194.563 36.389 193.968 36.389H191.678V39.6057ZM203.043 35.362H204.47L207.608 44.8611H206.39L205.587 42.4449H201.868L201.065 44.8611H199.83L203.043 35.362ZM202.18 41.5086H205.288L203.742 36.8269L202.18 41.5086ZM211.865 43.819H216.029V44.8611H210.69V35.362H211.865V43.819Z" stroke="#082332" stroke-width="0.5"/>
<g filter="url(#filter1_i)">
<path d="M162.206 62.1905H166.377V63.2826H161.029V53.3252H162.206V62.1905ZM169.19 53.3252H170.367V63.2826H169.19V53.3252ZM176.24 53.3252L179.398 60.069L182.527 53.3252H184.18V63.2826H183.003V55.0983L179.785 62.0322H178.997L175.733 54.9874V63.2826H174.557V53.3252H176.24ZM188.377 53.3252H189.553V63.2826H188.377V53.3252ZM192.33 53.3252H199.615V54.4018H196.562V63.2826H195.385V54.4018H192.33V53.3252ZM202.387 53.3252H208.152V54.4018H203.563V57.742H207.883V58.8026H203.563V62.1905H208.152V63.2826H202.387V53.3252ZM214.698 53.3252C216.11 53.3252 217.237 53.7791 218.082 54.6867C218.935 55.5837 219.362 56.7922 219.362 58.3119C219.362 59.8211 218.935 61.0294 218.082 61.9371C217.237 62.8342 216.11 63.2826 214.698 63.2826H211.943V53.3252H214.698ZM213.12 62.1905H214.698C215.742 62.1905 216.572 61.8264 217.187 61.0981C217.803 60.3593 218.11 59.4253 218.11 58.2961C218.11 57.1668 217.798 56.2434 217.172 55.5256C216.557 54.7976 215.732 54.4335 214.698 54.4335H213.12V62.1905Z" fill="#082332"/>
</g>
<path d="M162.206 62.1905H166.377V63.2826H161.029V53.3252H162.206V62.1905ZM169.19 53.3252H170.367V63.2826H169.19V53.3252ZM176.24 53.3252L179.398 60.069L182.527 53.3252H184.18V63.2826H183.003V55.0983L179.785 62.0322H178.997L175.733 54.9874V63.2826H174.557V53.3252H176.24ZM188.377 53.3252H189.553V63.2826H188.377V53.3252ZM192.33 53.3252H199.615V54.4018H196.562V63.2826H195.385V54.4018H192.33V53.3252ZM202.387 53.3252H208.152V54.4018H203.563V57.742H207.883V58.8026H203.563V62.1905H208.152V63.2826H202.387V53.3252ZM214.698 53.3252C216.11 53.3252 217.237 53.7791 218.082 54.6867C218.935 55.5837 219.362 56.7922 219.362 58.3119C219.362 59.8211 218.935 61.0294 218.082 61.9371C217.237 62.8342 216.11 63.2826 214.698 63.2826H211.943V53.3252H214.698ZM213.12 62.1905H214.698C215.742 62.1905 216.572 61.8264 217.187 61.0981C217.803 60.3593 218.11 59.4253 218.11 58.2961C218.11 57.1668 217.798 56.2434 217.172 55.5256C216.557 54.7976 215.732 54.4335 214.698 54.4335H213.12V62.1905Z" stroke="#082332" stroke-width="0.5"/>
<g filter="url(#filter2_i)">
<path d="M0 6.42906H8.89507L15.2055 51.9714H15.5748L21.9188 6.42906H30.7803L20.3412 63.9208H10.4055L0 6.42906ZM47.221 10.9395C45.6547 10.9395 44.4127 10.4683 43.4952 9.52583C42.6002 8.5833 42.1525 7.2033 42.1525 5.38568C42.1525 4.37577 42.2645 3.53436 42.4882 2.86109C42.7343 2.16548 43.07 1.61565 43.4952 1.21177C43.9427 0.785412 44.4798 0.482465 45.1063 0.302949C45.733 0.100979 46.449 0 47.2547 0C48.933 0 50.2083 0.426371 51.0812 1.27909C51.9538 2.13177 52.3903 3.50067 52.3903 5.38568C52.3903 7.13604 51.9427 8.50479 51.0477 9.49224C50.1748 10.4571 48.8993 10.9395 47.221 10.9395ZM42.8238 17.5707H51.316V63.9208H42.8238V17.5707ZM77.8603 64.4257C73.9667 64.4257 70.9903 62.8212 68.9317 59.6122C66.8953 56.4033 65.8772 51.5114 65.8772 44.9365V36.1847C65.8772 33.2451 66.0897 30.7318 66.515 28.6449C66.9402 26.5354 67.4995 24.774 68.1933 23.3602C68.9093 21.924 69.715 20.7908 70.61 19.9605C71.5275 19.1302 72.4673 18.5019 73.4295 18.0756C74.3918 17.6267 75.3428 17.3462 76.2827 17.234C77.2225 17.0994 78.0842 17.032 78.8673 17.032C80.4338 17.032 81.8658 17.2453 83.1638 17.6716C84.4618 18.0756 85.5807 18.7039 86.5203 19.5566C87.4602 20.3869 88.1875 21.4415 88.7022 22.7207C89.2168 23.9998 89.4743 25.5033 89.4743 27.2311C89.4743 28.3082 89.4183 29.2395 89.3063 30.0249C89.2168 30.7879 89.0827 31.5284 88.9037 32.2465H82.1232V30.6981C82.1232 28.3645 81.8435 26.5467 81.2842 25.2451C80.747 23.9213 79.852 23.2591 78.5988 23.2591C77.9052 23.2591 77.301 23.4275 76.7863 23.7641C76.2715 24.0783 75.8352 24.6281 75.477 25.4134C75.1415 26.1989 74.8842 27.2535 74.7052 28.5775C74.5483 29.9016 74.4702 31.562 74.4702 33.5592V46.7205C74.4702 48.74 74.5373 50.4567 74.6715 51.8703C74.8058 53.2841 75.0408 54.4398 75.3763 55.3375C75.712 56.2126 76.1597 56.8522 76.719 57.2561C77.2785 57.6599 77.9722 57.8619 78.8002 57.8619C79.2253 57.8619 79.6393 57.761 80.0422 57.559C80.445 57.3346 80.7917 56.9757 81.0827 56.482C81.3958 55.9882 81.6422 55.3375 81.8212 54.5296C82.0225 53.6994 82.1232 52.6784 82.1232 51.4664V50.0192H89.4407V51.8031C89.4407 56.2013 88.4672 59.4103 86.5203 61.43C84.596 63.4271 81.7092 64.4257 77.8603 64.4257ZM103.364 2.69284H111.856V37.9351H112.125L121.389 17.5707H129.545L119.274 38.7766L130.519 63.9208H121.859L112.125 40.9309H111.856V63.9208H103.364V2.69284Z" fill="#072331"/>
</g>
<g filter="url(#filter3_i)">
<path d="M1.90845 79.076H30.2563V88.159H13.152V110.911H26.5662V119.994H13.152V155.123H1.90845V79.076ZM61.0264 155.792C59.7529 155.792 58.4506 155.688 57.1194 155.48C55.8171 155.272 54.5436 154.841 53.2991 154.189C52.0836 153.535 50.9259 152.6 49.8263 151.383C48.7553 150.167 47.8148 148.564 47.0044 146.575C46.1941 144.586 45.5573 142.137 45.0943 139.229C44.6313 136.319 44.3997 132.847 44.3997 128.809V119.192C44.3997 115.215 44.6313 111.816 45.0943 108.996C45.5864 106.147 46.2374 103.757 47.0479 101.828C47.8871 99.8987 48.8566 98.37 49.9564 97.242C51.0563 96.0843 52.2138 95.2087 53.4293 94.6149C54.6738 93.9918 55.9473 93.591 57.2496 93.4129C58.5519 93.2051 59.8254 93.1012 61.0698 93.1012C62.2564 93.1012 63.4864 93.1902 64.7598 93.3683C66.0331 93.5463 67.2778 93.9323 68.4933 94.5261C69.7088 95.0901 70.8519 95.9509 71.9226 97.1083C73.0224 98.2363 73.9776 99.7649 74.7878 101.694C75.6271 103.624 76.2783 106.028 76.7414 108.907C77.2333 111.757 77.4794 115.185 77.4794 119.192V128.809C77.4794 132.787 77.2333 136.215 76.7414 139.095C76.2494 141.974 75.5838 144.408 74.7444 146.397C73.9051 148.386 72.9356 150.003 71.8358 151.25C70.7361 152.466 69.5784 153.417 68.3629 154.099C67.1474 154.782 65.9029 155.228 64.6296 155.435C63.3851 155.672 62.1841 155.792 61.0264 155.792ZM61.1133 147.109C62.0973 147.109 62.9219 146.857 63.5876 146.353C64.2823 145.818 64.8321 144.958 65.2373 143.77C65.6714 142.583 65.9754 141.024 66.1489 139.095C66.3516 137.136 66.4528 134.716 66.4528 131.837V116.744C66.4528 113.864 66.3516 111.445 66.1489 109.486C65.9754 107.527 65.6714 105.954 65.2373 104.767C64.8321 103.55 64.2823 102.674 63.5876 102.14C62.9219 101.605 62.0973 101.338 61.1133 101.338C60.0714 101.338 59.1886 101.605 58.4651 102.14C57.7704 102.674 57.1916 103.55 56.7286 104.767C56.2656 105.954 55.9328 107.527 55.7303 109.486C55.5276 111.445 55.4263 113.864 55.4263 116.744V131.837C55.4263 134.716 55.5276 137.136 55.7303 139.095C55.9328 141.024 56.2656 142.583 56.7286 143.77C57.1916 144.958 57.7704 145.818 58.4651 146.353C59.1886 146.857 60.0714 147.109 61.1133 147.109ZM96.0943 93.8137H104.125L105.08 100.047C106.296 97.7318 107.685 95.9954 109.248 94.8376C110.84 93.6801 112.46 93.1012 114.11 93.1012C117.265 93.1012 119.594 94.0956 121.099 96.0843C122.604 98.073 123.357 101.056 123.357 105.034C123.357 105.538 123.313 106.147 123.227 106.859C123.169 107.542 123.067 108.269 122.923 109.041C122.807 109.783 122.648 110.54 122.445 111.312C122.271 112.054 122.083 112.736 121.881 113.36H114.24V107.661C114.24 106.414 114.153 105.39 113.98 104.588C113.835 103.787 113.633 103.149 113.372 102.674C113.112 102.169 112.808 101.828 112.46 101.65C112.113 101.442 111.737 101.338 111.332 101.338C110.464 101.338 109.653 101.635 108.901 102.229C108.177 102.793 107.569 103.594 107.077 104.633V155.123H96.0943V93.8137ZM150.653 155.836C149.988 155.836 149.207 155.762 148.31 155.614C147.412 155.494 146.486 155.198 145.531 154.723C144.576 154.247 143.635 153.535 142.71 152.586C141.783 151.636 140.958 150.345 140.234 148.712C139.512 147.049 138.919 145.002 138.455 142.568C138.021 140.133 137.803 137.18 137.803 133.708V114.25C137.803 110.807 138.035 107.898 138.498 105.523C138.991 103.149 139.627 101.19 140.408 99.6463C141.19 98.073 142.058 96.8562 143.013 95.9954C143.998 95.1048 144.967 94.4518 145.922 94.0362C146.907 93.6207 147.832 93.3683 148.7 93.2795C149.597 93.1902 150.335 93.1457 150.914 93.1457C151.985 93.1457 152.998 93.2942 153.952 93.591C154.908 93.8877 155.776 94.2885 156.557 94.793C157.339 95.2681 158.034 95.8171 158.641 96.4405C159.249 97.0343 159.756 97.6427 160.161 98.2662L160.204 98.2215L159.856 90.4743V74.1338H170.797V155.123H162.244L161.29 149.424C160.798 150.225 160.233 151.013 159.597 151.784C158.96 152.556 158.208 153.254 157.339 153.877C156.471 154.471 155.488 154.945 154.387 155.302C153.287 155.658 152.042 155.836 150.653 155.836ZM154.387 147.109C155.111 147.109 155.747 146.991 156.297 146.753C156.877 146.487 157.382 146.159 157.817 145.774C158.28 145.358 158.67 144.882 158.988 144.349C159.336 143.814 159.626 143.265 159.856 142.701V105.835C159.308 104.588 158.569 103.535 157.644 102.674C156.746 101.783 155.646 101.338 154.344 101.338C153.533 101.338 152.795 101.487 152.13 101.783C151.464 102.08 150.885 102.644 150.393 103.475C149.902 104.277 149.511 105.405 149.221 106.859C148.961 108.284 148.831 110.139 148.831 112.425V135.933C148.831 138.219 148.961 140.089 149.221 141.544C149.511 142.999 149.902 144.141 150.393 144.972C150.885 145.774 151.464 146.337 152.13 146.663C152.824 146.961 153.577 147.109 154.387 147.109ZM188.63 142.3C188.63 140.964 188.745 139.673 188.978 138.427C189.238 137.18 189.485 136.185 189.715 135.445H197.443C197.443 137.67 197.545 139.539 197.747 141.054C197.978 142.538 198.34 143.725 198.832 144.616C199.323 145.506 199.975 146.145 200.785 146.531C201.625 146.917 202.637 147.109 203.825 147.109C205.473 147.109 206.675 146.635 207.427 145.684C208.18 144.734 208.557 143.637 208.557 142.389C208.557 141.736 208.468 141.114 208.295 140.52C208.122 139.925 207.877 139.333 207.558 138.739C207.24 138.115 206.85 137.492 206.385 136.869C205.923 136.245 205.402 135.563 204.822 134.82L196.792 125.115C195.75 123.778 194.737 122.428 193.753 121.063C192.798 119.667 191.943 118.243 191.192 116.788C190.468 115.304 189.875 113.761 189.412 112.158C188.978 110.555 188.762 108.863 188.762 107.082C188.762 104.707 189.152 102.644 189.933 100.893C190.743 99.1416 191.815 97.6873 193.145 96.5296C194.505 95.372 196.068 94.511 197.833 93.9471C199.6 93.3832 201.467 93.1012 203.433 93.1012C205.605 93.1012 207.558 93.3683 209.295 93.9026C211.03 94.4369 212.522 95.2384 213.767 96.307C215.01 97.3756 215.965 98.7113 216.63 100.314C217.295 101.887 217.63 103.728 217.63 105.835C217.63 107.26 217.498 108.64 217.238 109.976C217.007 111.312 216.775 112.455 216.545 113.404H208.947C208.918 111.386 208.832 109.62 208.687 108.106C208.542 106.592 208.267 105.345 207.862 104.366C207.485 103.357 206.95 102.6 206.257 102.095C205.59 101.591 204.707 101.338 203.607 101.338C202.653 101.338 201.857 101.501 201.22 101.828C200.583 102.125 200.062 102.525 199.657 103.03C199.282 103.535 199.007 104.099 198.832 104.722C198.688 105.345 198.615 105.984 198.615 106.637C198.615 108.061 198.948 109.382 199.613 110.599C200.278 111.816 201.162 113.137 202.262 114.562L211.03 125.115C211.667 125.916 212.407 126.896 213.245 128.053C214.083 129.181 214.88 130.442 215.633 131.837C216.385 133.203 217.022 134.702 217.543 136.334C218.063 137.966 218.323 139.673 218.323 141.454C218.323 143.621 217.99 145.595 217.325 147.376C216.66 149.128 215.677 150.627 214.373 151.874C213.072 153.12 211.465 154.085 209.555 154.767C207.673 155.45 205.517 155.792 203.087 155.792C201.09 155.792 199.208 155.568 197.443 155.123C195.678 154.649 194.143 153.891 192.842 152.852C191.54 151.784 190.512 150.389 189.76 148.668C189.007 146.945 188.63 144.824 188.63 142.3Z" fill="#072331"/>
</g>
<g filter="url(#filter4_i)">
<path d="M146.029 16.687V63.9211" stroke="#082332"/>
</g>
<defs>
<filter id="filter0_i" x="159.112" y="16.5645" width="57.1662" height="32.7128" filterUnits="userSpaceOnUse" color-interpolation-filters="sRGB">
<feFlood flood-opacity="0" result="BackgroundImageFix"/>
<feBlend mode="normal" in="SourceGraphic" in2="BackgroundImageFix" result="shape"/>
<feColorMatrix in="SourceAlpha" type="matrix" values="0 0 0 0 0 0 0 0 0 0 0 0 0 0 0 0 0 0 127 0" result="hardAlpha"/>
<feOffset dy="4"/>
<feGaussianBlur stdDeviation="2"/>
<feComposite in2="hardAlpha" operator="arithmetic" k2="-1" k3="1"/>
<feColorMatrix type="matrix" values="0 0 0 0 0 0 0 0 0 0 0 0 0 0 0 0 0 0 0.25 0"/>
<feBlend mode="normal" in2="shape" result="effect1_innerShadow"/>
</filter>
<filter id="filter1_i" x="160.779" y="53.0752" width="58.8328" height="14.4575" filterUnits="userSpaceOnUse" color-interpolation-filters="sRGB">
<feFlood flood-opacity="0" result="BackgroundImageFix"/>
<feBlend mode="normal" in="SourceGraphic" in2="BackgroundImageFix" result="shape"/>
<feColorMatrix in="SourceAlpha" type="matrix" values="0 0 0 0 0 0 0 0 0 0 0 0 0 0 0 0 0 0 127 0" result="hardAlpha"/>
<feOffset dy="4"/>
<feGaussianBlur stdDeviation="2"/>
<feComposite in2="hardAlpha" operator="arithmetic" k2="-1" k3="1"/>
<feColorMatrix type="matrix" values="0 0 0 0 0 0 0 0 0 0 0 0 0 0 0 0 0 0 0.25 0"/>
<feBlend mode="normal" in2="shape" result="effect1_innerShadow"/>
</filter>
<filter id="filter2_i" x="0" y="0" width="130.519" height="68.4257" filterUnits="userSpaceOnUse" color-interpolation-filters="sRGB">
<feFlood flood-opacity="0" result="BackgroundImageFix"/>
<feBlend mode="normal" in="SourceGraphic" in2="BackgroundImageFix" result="shape"/>
<feColorMatrix in="SourceAlpha" type="matrix" values="0 0 0 0 0 0 0 0 0 0 0 0 0 0 0 0 0 0 127 0" result="hardAlpha"/>
<feOffset dy="4"/>
<feGaussianBlur stdDeviation="2"/>
<feComposite in2="hardAlpha" operator="arithmetic" k2="-1" k3="1"/>
<feColorMatrix type="matrix" values="0 0 0 0 0 0 0 0 0 0 0 0 0 0 0 0 0 0 0.25 0"/>
<feBlend mode="normal" in2="shape" result="effect1_innerShadow"/>
</filter>
<filter id="filter3_i" x="1.90845" y="74.1338" width="216.415" height="85.7022" filterUnits="userSpaceOnUse" color-interpolation-filters="sRGB">
<feFlood flood-opacity="0" result="BackgroundImageFix"/>
<feBlend mode="normal" in="SourceGraphic" in2="BackgroundImageFix" result="shape"/>
<feColorMatrix in="SourceAlpha" type="matrix" values="0 0 0 0 0 0 0 0 0 0 0 0 0 0 0 0 0 0 127 0" result="hardAlpha"/>
<feOffset dy="4"/>
<feGaussianBlur stdDeviation="2"/>
<feComposite in2="hardAlpha" operator="arithmetic" k2="-1" k3="1"/>
<feColorMatrix type="matrix" values="0 0 0 0 0 0 0 0 0 0 0 0 0 0 0 0 0 0 0.25 0"/>
<feBlend mode="normal" in2="shape" result="effect1_innerShadow"/>
</filter>
<filter id="filter4_i" x="145.529" y="16.687" width="1" height="51.2341" filterUnits="userSpaceOnUse" color-interpolation-filters="sRGB">
<feFlood flood-opacity="0" result="BackgroundImageFix"/>
<feBlend mode="normal" in="SourceGraphic" in2="BackgroundImageFix" result="shape"/>
<feColorMatrix in="SourceAlpha" type="matrix" values="0 0 0 0 0 0 0 0 0 0 0 0 0 0 0 0 0 0 127 0" result="hardAlpha"/>
<feOffset dy="4"/>
<feGaussianBlur stdDeviation="2"/>
<feComposite in2="hardAlpha" operator="arithmetic" k2="-1" k3="1"/>
<feColorMatrix type="matrix" values="0 0 0 0 0 0 0 0 0 0 0 0 0 0 0 0 0 0 0.25 0"/>
<feBlend mode="normal" in2="shape" result="effect1_innerShadow"/>
</filter>
</defs>
</svg>
