<svg width="96" height="66" viewBox="0 0 96 66" fill="none" xmlns="http://www.w3.org/2000/svg">
<path d="M70.7688 14.6374C71.942 14.6374 72.6775 13.9231 72.6961 12.6523V11.0011H70.7409V11.836H71.7744V12.6523C71.7744 13.3944 71.4019 13.7376 70.7781 13.7376C70.1729 13.7376 69.8005 13.3944 69.8005 12.6059V9.97144C69.8005 9.18296 70.1543 8.83974 70.7502 8.83974C71.3461 8.83974 71.6813 9.1644 71.7185 9.91578H72.6496C72.603 8.63566 71.9047 7.93994 70.7502 7.93994C69.5677 7.93994 68.8414 8.64493 68.8414 9.96216V12.6059C68.8414 13.9231 69.5956 14.6374 70.7688 14.6374ZM76.5048 14.5354H77.5477L76.1324 12.0493C76.8773 11.7803 77.3056 11.0846 77.3056 10.0735C77.3056 8.78408 76.598 8.04198 75.3503 8.04198H73.665V14.5354H74.6054V12.1792H75.192L76.5048 14.5354ZM74.6054 8.9325H75.341C75.9927 8.9325 76.3373 9.3221 76.3373 10.092C76.3373 10.862 75.9928 11.2887 75.3317 11.2887H74.6054V8.9325ZM80.1628 14.6559C81.4105 14.6559 82.1554 13.8304 82.1554 12.476V10.1013C82.1554 8.74697 81.4105 7.92139 80.1628 7.92139C78.9152 7.92139 78.1703 8.74697 78.1703 10.1013V12.476C78.1703 13.8304 78.9152 14.6559 80.1628 14.6559ZM80.1628 13.7376C79.4832 13.7376 79.1386 13.2923 79.1386 12.476V10.1013C79.1386 9.285 79.4832 8.83974 80.1628 8.83974C80.8332 8.83974 81.187 9.285 81.187 10.1013V12.476C81.187 13.2923 80.8332 13.7376 80.1628 13.7376ZM85.0912 14.6281C86.255 14.6281 87.0092 13.8767 87.0092 12.5317V8.04198H86.0409V12.5317C86.0409 13.3387 85.6778 13.719 85.0912 13.719C84.4953 13.719 84.1322 13.3387 84.1322 12.5317V8.04198H83.1638V12.5317C83.1638 13.8767 83.918 14.6281 85.0912 14.6281ZM89.9357 8.04198H88.2132V14.5354H89.1536V12.2534H89.9357C91.2113 12.2534 91.9376 11.502 91.9376 10.1384C91.9376 8.81191 91.2113 8.04198 89.9357 8.04198ZM89.9264 11.3629H89.1536V8.9325H89.9264C90.634 8.9325 90.9785 9.34065 90.9785 10.1384C90.9785 10.9733 90.634 11.3629 89.9264 11.3629ZM69.9681 28.139V22.5361H69.0277V29.0295H72.1282V28.139H69.9681ZM72.8468 22.5361V29.0295H73.7872V22.5361H72.8468ZM79.2265 22.5361L78.1278 25.1706C77.9789 25.5416 77.7554 26.1631 77.653 26.46H77.6157C77.5133 26.1631 77.2899 25.5416 77.1409 25.1706L76.0422 22.5361H75.0832V29.0295H76.005V26.4971C75.9863 25.755 75.9584 25.0778 75.9305 24.4006L75.9677 24.3821C76.1539 24.9016 76.3774 25.4952 76.6009 26.0889L77.1688 27.5638H78.0999L78.6679 26.0889C78.8913 25.4952 79.1148 24.9016 79.301 24.3821L79.3382 24.4006C79.301 25.0778 79.2824 25.755 79.2638 26.4971V29.0295H80.1855V22.5361H79.2265ZM81.4937 22.5361V29.0295H82.4341V22.5361H81.4937ZM86.9056 22.5361H83.2372V23.4266H84.5872V29.0295H85.5463V23.4266H86.9056V22.5361ZM88.599 28.1482V26.1631H90.6754V25.3004H88.599V23.4174H90.8523V22.5361H87.6586V29.0295H90.9454V28.1482H88.599ZM91.9504 29.0295H93.5798C94.8367 29.0295 95.5816 28.2781 95.5816 26.9887V24.5583C95.5816 23.2782 94.8367 22.5361 93.5704 22.5361H91.9504V29.0295ZM92.8908 28.139V23.4266H93.5798C94.2595 23.4266 94.6319 23.8162 94.6319 24.5769V26.9702C94.6319 27.7401 94.2501 28.139 93.5798 28.139H92.8908Z" fill="#D3AB75"/>
<g filter="url(#filter0_i)">
<path d="M0 2.91975H4.0661L6.95073 23.6028H7.11955L10.0195 2.91975H14.0703L9.29834 29.0296H4.75657L0 2.91975ZM21.5856 4.96818C20.8696 4.96818 20.3019 4.75419 19.8825 4.32615C19.4733 3.89811 19.2687 3.27138 19.2687 2.44591C19.2687 1.98726 19.3199 1.60513 19.4222 1.29936C19.5347 0.98345 19.6881 0.733745 19.8825 0.550325C20.087 0.356695 20.3326 0.219111 20.619 0.137584C20.9054 0.0458597 21.2327 0 21.601 0C22.3682 0 22.9512 0.193636 23.3502 0.580896C23.7491 0.968145 23.9486 1.58983 23.9486 2.44591C23.9486 3.24083 23.744 3.86245 23.3348 4.3109C22.9359 4.74909 22.3528 4.96818 21.5856 4.96818ZM19.5756 7.97971H23.4576V29.0296H19.5756V7.97971ZM35.5914 29.2589C33.8116 29.2589 32.4511 28.5303 31.51 27.0729C30.5791 25.6155 30.1137 23.3939 30.1137 20.4079V16.4333C30.1137 15.0982 30.2109 13.9569 30.4053 13.0091C30.5996 12.0511 30.8553 11.2511 31.1725 10.609C31.4998 9.95677 31.868 9.44211 32.2772 9.06509C32.6966 8.68801 33.1262 8.40265 33.5661 8.20901C34.0059 8.00516 34.4407 7.87779 34.8703 7.82683C35.2999 7.76566 35.6938 7.73511 36.0518 7.73511C36.7678 7.73511 37.4225 7.83193 38.0158 8.02557C38.6091 8.20901 39.1205 8.49437 39.5501 8.8816C39.9798 9.25867 40.3122 9.73768 40.5475 10.3186C40.7828 10.8995 40.9004 11.5823 40.9004 12.367C40.9004 12.8562 40.8748 13.2791 40.8237 13.6358C40.7828 13.9823 40.7214 14.3186 40.6396 14.6448H37.5401V13.9416C37.5401 12.8817 37.4122 12.0562 37.1565 11.4651C36.911 10.8638 36.5019 10.5631 35.929 10.5631C35.6119 10.5631 35.3358 10.6396 35.1005 10.7924C34.8652 10.9351 34.6657 11.1848 34.502 11.5415C34.3486 11.8982 34.231 12.3772 34.1491 12.9785C34.0775 13.5798 34.0417 14.3339 34.0417 15.2409V21.2181C34.0417 22.1353 34.0724 22.9149 34.1338 23.5569C34.1952 24.199 34.3026 24.7238 34.456 25.1315C34.6095 25.5289 34.8141 25.8194 35.0698 26.0028C35.3255 26.1863 35.6426 26.278 36.0211 26.278C36.2155 26.278 36.4047 26.2321 36.5888 26.1404C36.7729 26.0385 36.9315 25.8755 37.0645 25.6513C37.2076 25.427 37.3202 25.1315 37.402 24.7646C37.4941 24.3875 37.5401 23.9238 37.5401 23.3735V22.7162H40.8851V23.5264C40.8851 25.5238 40.4401 26.9812 39.5501 27.8984C38.6704 28.8054 37.3508 29.2589 35.5914 29.2589ZM47.2497 1.22295H51.1316V17.2282H51.2544L55.4893 7.97971H59.2175L54.5226 17.6104L59.6627 29.0296H55.7041L51.2544 18.5887H51.1316V29.0296H47.2497V1.22295Z" fill="#D3AB75"/>
</g>
<g filter="url(#filter1_i)">
<path d="M2.36351 34.6102H14.2385V38.3062H7.07346V47.5644H12.6927V51.2604H7.07346V65.5552H2.36351V34.6102ZM27.8731 65.8271C27.3396 65.8271 26.794 65.7848 26.2364 65.7001C25.6908 65.6155 25.1574 65.4404 24.6361 65.1749C24.1269 64.9088 23.6419 64.5284 23.1813 64.0333C22.7327 63.5382 22.3386 62.886 21.9992 62.0766C21.6598 61.2673 21.393 60.2706 21.199 59.0873C21.0051 57.9035 20.9081 56.4906 20.9081 54.8475V50.9342C20.9081 49.3157 21.0051 47.9328 21.199 46.7853C21.4052 45.6258 21.6779 44.6534 22.0174 43.8684C22.369 43.0833 22.7751 42.4612 23.2358 42.0022C23.6965 41.5312 24.1814 41.1748 24.6906 40.9333C25.2119 40.6797 25.7454 40.5166 26.2909 40.4441C26.8365 40.3596 27.3699 40.3173 27.8912 40.3173C28.3883 40.3173 28.9035 40.3535 29.437 40.426C29.9704 40.4984 30.4917 40.6555 31.0009 40.8971C31.5101 41.1265 31.989 41.4768 32.4375 41.9478C32.8982 42.4068 33.2983 43.0289 33.6377 43.814C33.9893 44.5991 34.2621 45.5775 34.4561 46.7491C34.6622 47.9086 34.7652 49.3037 34.7652 50.9342V54.8475C34.7652 56.4662 34.6622 57.8611 34.4561 59.0328C34.25 60.2045 33.9711 61.1948 33.6196 62.0041C33.268 62.8135 32.8619 63.4715 32.4012 63.9788C31.9404 64.4739 31.4555 64.8606 30.9463 65.1383C30.4371 65.4161 29.9159 65.5975 29.3824 65.6822C28.8611 65.7784 28.358 65.8271 27.8731 65.8271ZM27.9094 62.294C28.3216 62.294 28.6671 62.1914 28.946 61.9862C29.2369 61.7687 29.4672 61.4186 29.637 60.935C29.8188 60.4521 29.9462 59.8178 30.0189 59.0328C30.1038 58.2357 30.1462 57.2512 30.1462 56.0795V49.9378C30.1462 48.7662 30.1038 47.7818 30.0189 46.9846C29.9462 46.1874 29.8188 45.5473 29.637 45.0641C29.4672 44.5689 29.2369 44.2126 28.946 43.9952C28.6671 43.7778 28.3216 43.669 27.9094 43.669C27.473 43.669 27.1032 43.7778 26.8001 43.9952C26.5091 44.2126 26.2666 44.5689 26.0727 45.0641C25.8787 45.5473 25.7393 46.1874 25.6545 46.9846C25.5696 47.7818 25.5271 48.7662 25.5271 49.9378V56.0795C25.5271 57.2512 25.5696 58.2357 25.6545 59.0328C25.7393 59.8178 25.8787 60.4521 26.0727 60.935C26.2666 61.4186 26.5091 61.7687 26.8001 61.9862C27.1032 62.1914 27.473 62.294 27.9094 62.294ZM43.3079 40.6072H46.6722L47.0723 43.1437C47.5815 42.2015 48.1634 41.4949 48.8181 41.0239C49.4849 40.5528 50.1638 40.3173 50.8548 40.3173C52.1763 40.3173 53.1522 40.7219 53.7826 41.5312C54.413 42.3404 54.7283 43.5543 54.7283 45.1728C54.7283 45.3781 54.7101 45.6258 54.6737 45.9156C54.6495 46.1935 54.607 46.4894 54.5464 46.8034C54.4979 47.1054 54.4312 47.4133 54.3464 47.7274C54.2736 48.0294 54.1948 48.3072 54.11 48.5608H50.9094V46.2418C50.9094 45.7345 50.873 45.3178 50.8002 44.9916C50.7396 44.6655 50.6548 44.4058 50.5457 44.2126C50.4365 44.0072 50.3093 43.8684 50.1638 43.7959C50.0183 43.7113 49.8607 43.669 49.691 43.669C49.3273 43.669 48.9878 43.7898 48.6726 44.0314C48.3695 44.2609 48.1149 44.587 47.9088 45.0098V65.5552H43.3079V40.6072ZM66.9083 65.8451C66.629 65.8451 66.3019 65.8149 65.926 65.7546C65.5501 65.7059 65.1625 65.5853 64.7621 65.3923C64.3624 65.1986 63.9678 64.9088 63.5802 64.5226C63.1921 64.1359 62.8464 63.6107 62.5438 62.9463C62.2406 62.2697 61.9922 61.4365 61.7978 60.4463C61.6162 59.4555 61.5255 58.2536 61.5255 56.8407V48.9232C61.5255 47.5221 61.6221 46.3384 61.8164 45.3721C62.0224 44.4058 62.2889 43.6086 62.6166 42.9806C62.9436 42.3404 63.3073 41.8452 63.7077 41.4949C64.1197 41.1326 64.5259 40.8669 64.9257 40.6978C65.3382 40.5286 65.7258 40.426 66.0895 40.3898C66.4654 40.3535 66.7744 40.3354 67.0171 40.3354C67.4658 40.3354 67.89 40.3958 68.2904 40.5166C68.6901 40.6373 69.0539 40.8004 69.3815 41.0057C69.7085 41.199 69.9995 41.4225 70.2544 41.6761C70.5087 41.9177 70.7211 42.1653 70.8904 42.419L70.909 42.4008L70.7636 39.2483V32.5991H75.3462V65.5552H71.7633L71.3635 63.2361C71.1575 63.562 70.9207 63.8826 70.6541 64.1962C70.3876 64.5105 70.0722 64.7945 69.7085 65.0479C69.3448 65.2897 68.9328 65.4827 68.4719 65.6277C68.011 65.7726 67.4902 65.8451 66.9083 65.8451ZM68.4719 62.294C68.7751 62.294 69.0416 62.2459 69.2721 62.1491C69.5147 62.0407 69.7266 61.9073 69.9087 61.7508C70.1025 61.5815 70.266 61.3878 70.3998 61.171C70.5453 60.953 70.6664 60.7298 70.7636 60.5002V45.4989C70.5331 44.9916 70.2235 44.5629 69.836 44.2126C69.46 43.8502 68.9991 43.669 68.4539 43.669C68.114 43.669 67.805 43.7295 67.5263 43.8502C67.2475 43.971 67.0049 44.2005 66.7989 44.5387C66.5929 44.8648 66.4294 45.3238 66.3077 45.9156C66.1989 46.4954 66.1442 47.2503 66.1442 48.1803V57.7463C66.1442 58.6763 66.1989 59.4375 66.3077 60.0295C66.4294 60.6214 66.5929 61.0864 66.7989 61.4244C67.0049 61.7508 67.2475 61.9798 67.5263 62.1125C67.8173 62.2337 68.1327 62.294 68.4719 62.294ZM83.5613 60.3373C83.5613 59.7935 83.6096 59.2682 83.7068 58.7609C83.8162 58.2536 83.9192 57.849 84.0158 57.5475H87.253C87.253 58.4531 87.2955 59.2137 87.3805 59.83C87.4771 60.4341 87.629 60.9171 87.835 61.2794C88.041 61.6418 88.3139 61.9015 88.6532 62.0586C89.0047 62.2157 89.4289 62.294 89.9264 62.294C90.6172 62.294 91.1205 62.101 91.4354 61.7143C91.7508 61.3275 91.9085 60.8811 91.9085 60.3733C91.9085 60.1077 91.8718 59.8544 91.7991 59.6126C91.7263 59.3708 91.6233 59.1297 91.4901 58.8879C91.3568 58.634 91.1933 58.3806 90.9989 58.1272C90.8051 57.8733 90.5869 57.5956 90.3442 57.2935L86.9801 53.3442C86.5437 52.8004 86.1195 52.2508 85.7075 51.6952C85.3071 51.1275 84.9492 50.5477 84.6344 49.9559C84.3312 49.352 84.0827 48.7239 83.8889 48.0717C83.7068 47.4194 83.616 46.7309 83.616 46.0062C83.616 45.04 83.7795 44.2005 84.1072 43.4879C84.4464 42.7752 84.8951 42.1834 85.4526 41.7123C86.0223 41.2413 86.6769 40.891 87.4166 40.6615C88.1562 40.432 88.9383 40.3173 89.7623 40.3173C90.6719 40.3173 91.4901 40.426 92.2175 40.6434C92.9449 40.8608 93.5693 41.187 94.0907 41.6218C94.6121 42.0566 95.0119 42.6001 95.2906 43.2523C95.5694 43.8925 95.709 44.6414 95.709 45.4989C95.709 46.0787 95.6543 46.6403 95.5455 47.1839C95.4483 47.7274 95.3511 48.1924 95.2546 48.579H92.072C92.0598 47.7576 92.0237 47.0389 91.9632 46.4229C91.9021 45.8069 91.7868 45.2996 91.6175 44.9011C91.4598 44.4904 91.2358 44.1824 90.9448 43.977C90.6655 43.7717 90.2959 43.669 89.8351 43.669C89.4353 43.669 89.1018 43.7355 88.8353 43.8684C88.5682 43.9891 88.35 44.1522 88.1806 44.3575C88.0229 44.5629 87.9077 44.7923 87.835 45.046C87.7745 45.2996 87.7442 45.5593 87.7442 45.8251C87.7442 46.4048 87.8833 46.9423 88.162 47.4375C88.4408 47.9328 88.8109 48.4702 89.2718 49.05L92.9449 53.3442C93.2114 53.67 93.521 54.0689 93.8725 54.5397C94.224 54.9988 94.5574 55.5119 94.8728 56.0795C95.1876 56.6355 95.4547 57.2454 95.673 57.9092C95.8912 58.5737 96 59.2682 96 59.9929C96 60.8748 95.8603 61.6777 95.5816 62.4024C95.3029 63.1155 94.8909 63.7255 94.345 64.2328C93.7997 64.74 93.127 65.1325 92.3269 65.4103C91.5384 65.688 90.6352 65.8271 89.6168 65.8271C88.7806 65.8271 87.9927 65.7361 87.253 65.5552C86.5134 65.3621 85.871 65.0537 85.3251 64.6311C84.7799 64.1962 84.3492 63.6286 84.0344 62.9283C83.719 62.2273 83.5613 61.3641 83.5613 60.3373Z" fill="#D3AB75"/>
</g>
<g filter="url(#filter2_i)">
<path d="M64.5934 8.1582V29.0298" stroke="#D3AB75" stroke-width="2"/>
</g>
<defs>
<filter id="filter0_i" x="0" y="0" width="59.6627" height="33.2589" filterUnits="userSpaceOnUse" color-interpolation-filters="sRGB">
<feFlood flood-opacity="0" result="BackgroundImageFix"/>
<feBlend mode="normal" in="SourceGraphic" in2="BackgroundImageFix" result="shape"/>
<feColorMatrix in="SourceAlpha" type="matrix" values="0 0 0 0 0 0 0 0 0 0 0 0 0 0 0 0 0 0 127 0" result="hardAlpha"/>
<feOffset dy="4"/>
<feGaussianBlur stdDeviation="2"/>
<feComposite in2="hardAlpha" operator="arithmetic" k2="-1" k3="1"/>
<feColorMatrix type="matrix" values="0 0 0 0 0 0 0 0 0 0 0 0 0 0 0 0 0 0 0.25 0"/>
<feBlend mode="normal" in2="shape" result="effect1_innerShadow"/>
</filter>
<filter id="filter1_i" x="2.36351" y="32.5991" width="93.6365" height="37.246" filterUnits="userSpaceOnUse" color-interpolation-filters="sRGB">
<feFlood flood-opacity="0" result="BackgroundImageFix"/>
<feBlend mode="normal" in="SourceGraphic" in2="BackgroundImageFix" result="shape"/>
<feColorMatrix in="SourceAlpha" type="matrix" values="0 0 0 0 0 0 0 0 0 0 0 0 0 0 0 0 0 0 127 0" result="hardAlpha"/>
<feOffset dy="4"/>
<feGaussianBlur stdDeviation="2"/>
<feComposite in2="hardAlpha" operator="arithmetic" k2="-1" k3="1"/>
<feColorMatrix type="matrix" values="0 0 0 0 0 0 0 0 0 0 0 0 0 0 0 0 0 0 0.25 0"/>
<feBlend mode="normal" in2="shape" result="effect1_innerShadow"/>
</filter>
<filter id="filter2_i" x="63.5934" y="8.1582" width="2" height="24.8716" filterUnits="userSpaceOnUse" color-interpolation-filters="sRGB">
<feFlood flood-opacity="0" result="BackgroundImageFix"/>
<feBlend mode="normal" in="SourceGraphic" in2="BackgroundImageFix" result="shape"/>
<feColorMatrix in="SourceAlpha" type="matrix" values="0 0 0 0 0 0 0 0 0 0 0 0 0 0 0 0 0 0 127 0" result="hardAlpha"/>
<feOffset dy="4"/>
<feGaussianBlur stdDeviation="2"/>
<feComposite in2="hardAlpha" operator="arithmetic" k2="-1" k3="1"/>
<feColorMatrix type="matrix" values="0 0 0 0 0 0 0 0 0 0 0 0 0 0 0 0 0 0 0.25 0"/>
<feBlend mode="normal" in2="shape" result="effect1_innerShadow"/>
</filter>
</defs>
</svg>
